<?xml version="1.0" encoding="utf-8"?><svg xmlns="http://www.w3.org/2000/svg" xmlns:xlink="http://www.w3.org/1999/xlink"><symbol viewBox="0 0 136.5 162" id="apple" xmlns="http://www.w3.org/2000/svg"><path d="M133.4 126.1c-2.4 5.7-5.4 10.9-8.7 15.7-4.6 6.5-8.3 11.1-11.2 13.6-4.5 4.1-9.3 6.2-14.4 6.4-3.7 0-8.1-1.1-13.3-3.2-5.2-2.1-10-3.2-14.3-3.2-4.6 0-9.5 1.1-14.7 3.2-5.3 2.1-9.5 3.2-12.7 3.4-4.9.2-9.8-2-14.7-6.5-3.1-2.7-7-7.4-11.7-14-5-7.1-9.2-15.3-12.4-24.7C1.8 106.7.1 96.9.1 87.4c0-10.9 2.3-20.2 7-28.1C10.8 53 15.7 48 21.9 44.4c6.2-3.6 12.8-5.5 19.9-5.6 3.9 0 9 1.2 15.4 3.6 6.4 2.4 10.4 3.6 12.2 3.6 1.3 0 5.9-1.4 13.6-4.2 7.3-2.6 13.4-3.7 18.4-3.3 13.6 1.1 23.9 6.5 30.7 16.2-12.2 7.4-18.2 17.7-18.1 31 .1 10.3 3.9 18.9 11.2 25.8 3.3 3.2 7.1 5.6 11.2 7.4-1.1 2.4-2 4.9-3 7.2zm-31.3-123c0 8.1-3 15.7-8.9 22.7-7.1 8.3-15.7 13.1-25.1 12.4-.1-1-.2-2-.2-3.1 0-7.8 3.4-16.1 9.4-22.9 3-3.4 6.8-6.3 11.4-8.6 4.6-2.3 9-3.5 13.1-3.7.3 1.1.3 2.2.3 3.2z"/></symbol><symbol viewBox="0 0 12 16" id="arrow-down" xmlns="http://www.w3.org/2000/svg"><path d="M.4 8.9l1.2-1 3.7 4.4V.4h1.5v11.9l3.6-4.4 1.2 1L6 15.6z"/></symbol><symbol viewBox="0 0 16 12" id="arrow-left" xmlns="http://www.w3.org/2000/svg"><path d="M6.7.4l1 1.2-4.5 3.7h12v1.5h-12l4.5 3.6-1 1.2L0 6z"/></symbol><symbol viewBox="0 0 16 12" id="arrow-right" xmlns="http://www.w3.org/2000/svg"><path d="M8.5.4l-1 1.2 4.4 3.7H0v1.5h11.9l-4.4 3.6 1 1.2L15.2 6z"/></symbol><symbol viewBox="0 0 12 16" id="arrow-up" xmlns="http://www.w3.org/2000/svg"><path d="M.4 7.1l1.2 1 3.7-4.4v11.9h1.5V3.7l3.6 4.4 1.2-1L6 .4z"/></symbol><symbol viewBox="0 0 14 17" id="balloons" xmlns="http://www.w3.org/2000/svg"><path d="M4.9.6C2.2.6 0 2.9 0 5.8c0 2.5 2.6 6.7 4.4 7.5v2.8c0 .2.2.4.4.4s.4-.2.4-.4v-2.7c1.8-.6 4.6-5 4.6-7.6C9.8 2.9 7.6.6 4.9.6zm0 12C3.8 12.6.8 8.4.8 5.8c0-2.4 1.8-4.4 4.1-4.4S9 3.4 9 5.8c0 2.6-3 6.8-4.1 6.8z"/><path d="M11.1 2.9c-.2-.1-.4 0-.5.2-.1.2 0 .4.2.5C12.1 4.2 13 5.5 13 7c0 2-2.1 5.2-3.1 5.5H9.6c-.1 0-.2-.1-.5-.3-.2-.1-.4-.1-.6.1-.1.2-.1.4.1.6.3.2.5.3.7.4V15c0 .2.2.4.4.4s.4-.2.4-.4v-1.8c1.5-.7 3.6-4.1 3.6-6.2.1-1.8-1-3.4-2.6-4.1z"/></symbol><symbol viewBox="0 0 18 15" id="bank" xmlns="http://www.w3.org/2000/svg"><path d="M17 14v-1h-1V6h1V4L9 0 1 4v2h1v7H1v1H0v1h18v-1h-1zM4 6h4v7H4V6zm10 7h-4V6h4v7z"/></symbol><symbol viewBox="0 0 21 20" id="bell" xmlns="http://www.w3.org/2000/svg"><path d="M19.2 14.9h-2.1v-7C17 3.8 13.8.5 9.8.5S2.6 3.8 2.5 7.8v7.1H.8c-.4 0-.8.3-.8.7 0 .4.3.7.8.7h5.7c.2 1.7 1.6 3.1 3.5 3.1s3.3-1.4 3.5-3.1h5.9c.4 0 .8-.3.8-.7-.2-.3-.5-.7-1-.7zm-15.1-7C4.1 4.6 6.7 2 9.9 2s5.7 2.7 5.8 5.9v7H4.1v-7zM9.9 18c-1 0-1.8-.7-1.9-1.6h3.9c-.2.9-1 1.6-2 1.6z"/></symbol><symbol viewBox="0 0 13 13" id="bold" xmlns="http://www.w3.org/2000/svg"><path d="M1.5 1v.5h1c.3 0 .5.2.5.5v9c0 .3-.2.5-.5.5h-.8v.5h6c1.7 0 3.1-1.4 3.1-3.1 0-1.3-.8-2.4-1.9-2.9.7-.5 1.2-1.3 1.2-2.3C10.1 2.2 8.9 1 7.3 1H1.5zm3.4.5h.9c1.2 0 2.1 1 2.1 2.1s-1 2.1-2.1 2.1h-.9V1.5zm0 4.8h1.4c1.4 0 2.6 1.2 2.6 2.6s-1.2 2.6-2.6 2.6H4.9V6.3z"/></symbol><symbol viewBox="0 0 44 28" id="browse" xmlns="http://www.w3.org/2000/svg"><path d="M38.105 13.714c0-4.578-3.72-8.289-8.31-8.289-.776 0-1.526.109-2.239.307A9.142 9.142 0 0019.07 0c-4.887 0-8.879 3.827-9.128 8.64-.078-.002-.156-.006-.234-.006C4.346 8.634 0 12.97 0 18.317c0 5.323 4.306 9.641 9.633 9.68C9.71 28 19.895 28 19.895 28v-8.842H16.21l5.894-5.895 5.611 5.976-3.4-.081V28h13.101C41.066 27.918 44 24.95 44 21.293c0-3.44-2.6-6.273-5.947-6.658.034-.302.052-.61.052-.921z" fill-rule="nonzero" fill="#93C252"/></symbol><symbol viewBox="0 0 18 18" id="calendar" xmlns="http://www.w3.org/2000/svg"><path d="M17.5 2H15V.5c0-.3-.2-.5-.5-.5h-3c-.3 0-.5.2-.5.5V2H7V.5c0-.3-.2-.5-.5-.5h-3c-.3 0-.5.2-.5.5V2H.5c-.3 0-.5.2-.5.5v15c0 .3.2.5.5.5h17c.3 0 .5-.2.5-.5v-15c0-.3-.2-.5-.5-.5zM12 1h2v3h-2V1zM4 1h2v3H4V1zM3 3v1.5c0 .3.2.5.5.5h3c.3 0 .5-.2.5-.5V3h4v1.5c0 .3.2.5.5.5h3c.3 0 .5-.2.5-.5V3h2v3H1V3h2zM1 17V7h16v10H1z"/></symbol><symbol viewBox="0 0 18 18" id="calendar-check" xmlns="http://www.w3.org/2000/svg"><path d="M16 2h-1.6V1c0-.6-.4-1-1-1s-1 .4-1 1v1H9.1V1c0-.6-.4-1-1-1s-1 .4-1 1v1H4.6V1c0-.6-.4-1-1-1s-1 .4-1 1v1H2C.9 2 0 2.9 0 4v12c0 1.1.9 2 2 2h14c1.1 0 2-.9 2-2V4c0-1.1-.9-2-2-2zm0 14H2V4h14v12z"/><path d="M7.7 13.2c.2.2.4.3.7.3.3 0 .5-.1.7-.3l4.3-4.5c.4-.4.4-1 0-1.4s-1-.4-1.4 0L8.3 11 6.5 9.4c-.4-.4-1-.3-1.4.1-.4.4-.3 1 .1 1.4l2.5 2.3z"/></symbol><symbol viewBox="0 0 13 6" id="caret-down" xmlns="http://www.w3.org/2000/svg"><path d="M.5.5l6 5 6-5z"/></symbol><symbol viewBox="0 0 11 10" id="caret-down-lg" xmlns="http://www.w3.org/2000/svg"><path d="M5.5 0H11L8.2 4.8 5.5 9.5 2.8 4.8 0 0z"/></symbol><symbol viewBox="0 0 6 13" id="caret-left" xmlns="http://www.w3.org/2000/svg"><path d="M5.5.5l-5 6 5 6z"/></symbol><symbol viewBox="0 0 6 13" id="caret-right" xmlns="http://www.w3.org/2000/svg"><path d="M.5 12.5l5-6-5-6z"/></symbol><symbol viewBox="0 0 13 6" id="caret-up" xmlns="http://www.w3.org/2000/svg"><path d="M12.5 5.5l-6-5-6 5z"/></symbol><symbol viewBox="0 0 16 16" id="carriage" xmlns="http://www.w3.org/2000/svg"><path d="M10.8 11.3c-1.1 0-2 .9-2 2s.9 2 2 2 2-.9 2-2-.9-2-2-2zm0 3.3c-.7 0-1.2-.6-1.2-1.2 0-.7.5-1.2 1.2-1.2s1.2.6 1.2 1.2-.5 1.2-1.2 1.2zM5 11.3c-1.1 0-2 .9-2 2s.9 2 2 2 2-.9 2-2-.9-2-2-2zm0 3.3c-.7 0-1.2-.6-1.2-1.2 0-.7.5-1.2 1.2-1.2s1.2.6 1.2 1.2-.5 1.2-1.2 1.2zM15.3 5.1c-.3-2.9-3.4-5-6.2-5H7.8v5H.5v1.7c0 2.2 1.7 4.1 3.9 4.1h7.1c2.1 0 3.9-1.8 3.9-4.1V5.5l-.1-.4zM8.6.9h.5c2.4 0 5.1 1.8 5.4 4.2H8.6V.9zm5.9 5.9c0 1.8-1.4 3.3-3.1 3.3h-7c-1.7 0-3.1-1.5-3.1-3.3v-.9h13.2v.9z"/></symbol><symbol viewBox="0 0 18 17" id="case" xmlns="http://www.w3.org/2000/svg"><path d="M16 3h-4V1c0-.6-.4-1-1-1H7c-.6 0-1 .4-1 1v2H2C.9 3 0 3.9 0 5v6c0 .7.4 1.4 1 1.7V15c0 1.1.9 2 2 2h12c1.1 0 2-.9 2-2v-2.3c.6-.3 1-1 1-1.7V5c0-1.1-.9-2-2-2zM8 2h2v1H8V2zm7 13H3v-2h12v2zm1-4H2V5h14v6z"/></symbol><symbol viewBox="0 0 18 15" id="case-thin" xmlns="http://www.w3.org/2000/svg"><path d="M6 2V1c0-.6.4-1 1-1h4c.5 0 1 .4 1 1v1h5c.5 0 1 .4 1 1v7c0 .6-.4 1-1 1v3c0 .6-.4 1-1 1H2c-.6 0-1-.4-1-1v-3c-.5 0-1-.4-1-1V3c0-.6.4-1 1-1h5zM2 14h14v-3H2v3zm15-4V3H1v7h16zm-6-8V1H7v1h4z"/></symbol><symbol viewBox="0 0 35 32" id="category" xmlns="http://www.w3.org/2000/svg"><path d="M34.9 15.9c0-.8-.4-1.4-1.1-1.8l-2.6-1.3 2.6-1.3c.7-.3 1.1-1 1.1-1.8s-.4-1.4-1.1-1.8L19.1.4c-1.1-.5-2.3-.5-3.4 0L1.1 7.9C.4 8.3 0 8.9 0 9.7s.4 1.4 1.1 1.8l2.6 1.3-2.6 1.3c-.7.3-1.1 1-1.1 1.8s.4 1.4 1.1 1.8L3.7 19l-2.6 1.3c-.7.3-1.1 1-1.1 1.8s.4 1.4 1.1 1.8l14.7 7.5c.5.3 1.1.4 1.7.4s1.2-.1 1.7-.4l14.7-7.5c.7-.3 1.1-1 1.1-1.8s-.4-1.4-1.1-1.8L31.2 19l2.6-1.3c.7-.4 1.1-1.1 1.1-1.8zM1.8 10c-.2-.1-.2-.2-.2-.3s0-.2.2-.3l14.7-7.5c.3-.2.7-.2 1-.2.3 0 .7.1 1 .2l14.7 7.5c.2.1.2.2.2.3s0 .2-.2.3l-14.7 7.5c-.6.3-1.4.3-2 0L1.8 10zm31.3 11.8c.2.1.2.2.2.3 0 .1 0 .2-.2.3l-14.7 7.5c-.6.3-1.4.3-2 0L1.8 22.4c-.2-.1-.2-.2-.2-.3 0-.1 0-.2.2-.3l3.7-1.9 10.3 5.3c.5.3 1.1.4 1.7.4.6 0 1.2-.1 1.7-.4l10.3-5.3 3.6 1.9zm0-5.6l-14.7 7.5c-.6.3-1.4.3-2 0L1.8 16.2c-.2-.1-.2-.2-.2-.3 0-.1 0-.2.2-.3l3.7-1.9L15.7 19c.5.3 1.1.4 1.7.4s1.2-.1 1.7-.4l10.3-5.3 3.7 1.9c.2.1.2.2.2.3 0 .1-.1.2-.2.3z"/></symbol><symbol viewBox="0 0 13 17" id="change" xmlns="http://www.w3.org/2000/svg"><path d="M9.5 2.8H5.1l1.4-1.2c.3-.3.4-.7.1-1.1C6.3.2 5.8.2 5.5.4L1.8 3.5l3.7 3.1c.2.1.3.2.5.2s.4-.1.6-.3c.3-.3.2-.8-.1-1.1L5.1 4.3h4.4c.7 0 1.3.5 1.3 1.3v2c0 .4.3.8.8.8s.8-.3.8-.8v-2C12.3 4 11 2.8 9.5 2.8zM6.4 10.5c-.3.3-.2.8.1 1.1l1.4 1.2H3.5c-.7 0-1.2-.6-1.2-1.3v-2c0-.4-.3-.8-.8-.8s-.7.4-.7.8v2c0 1.5 1.2 2.8 2.7 2.8h4.4l-1.4 1.2c-.3.3-.4.7-.1 1.1.1.2.4.3.6.3s.3-.1.5-.2l3.7-3.1-3.7-3.1c-.3-.3-.8-.3-1.1 0z"/></symbol><symbol viewBox="0 0 40 35" id="chat" xmlns="http://www.w3.org/2000/svg"><path d="M36.533 20.943a2.438 2.438 0 112-.086v4.318a2.28 2.28 0 01-2.266 2.267H13.6l-4.8 4.8v-2.829l3.972-3.971h23.495a.28.28 0 00.266-.267v-4.232zm1-12.642h-1V2.508a.28.28 0 00-.266-.266h-34A.28.28 0 002 2.508v22.667a.28.28 0 00.267.267H8.8v3.971l-2 2v-3.971H2.267A2.28 2.28 0 010 25.175V2.508A2.28 2.28 0 012.267.242h34a2.28 2.28 0 012.266 2.266v5.793h-2V2.508a.28.28 0 00-.266-.266h-34A.28.28 0 002 2.508v22.667a.28.28 0 00.267.267H8.8v6.793l-2 2v-6.793H2.267A2.28 2.28 0 010 25.175V2.508A2.28 2.28 0 012.267.242h34a2.28 2.28 0 012.266 2.266v5.793h-1z" fill="#000" fill-rule="nonzero" opacity=".2"/></symbol><symbol viewBox="0 0 24 18" id="check" xmlns="http://www.w3.org/2000/svg"><path d="M8.7 17.2l-8-8 1.5-1.4 6.5 6.5L22.5.6 23.9 2z"/></symbol><symbol viewBox="0 0 11 8" id="check-bold" xmlns="http://www.w3.org/2000/svg"><path d="M4.4 7.8l-3.9-4 1.4-1.4 2.5 2.5L9.1.3l1.4 1.4z"/></symbol><symbol viewBox="0 0 24 16" id="check-thin" xmlns="http://www.w3.org/2000/svg"><path d="M8.8 16L.3 7.5l1.1-1 7.4 7.4L22.6 0l1.1 1.1z"/></symbol><symbol viewBox="0 0 14 8" id="chevron-down" xmlns="http://www.w3.org/2000/svg"><path d="M7.1 7.8L.6 1.2l1.1-1 5.4 5.4L12.4.2l1.2 1z"/></symbol><symbol viewBox="0 0 8 14" id="chevron-left" xmlns="http://www.w3.org/2000/svg"><path d="M.3 7L6.8.5l1 1.1L2.4 7l5.4 5.4-1 1.1z"/></symbol><symbol viewBox="0 0 8 14" id="chevron-right" xmlns="http://www.w3.org/2000/svg"><path d="M1.3 13.5l-1-1.1L5.7 7 .3 1.6l1-1.1L7.8 7z"/></symbol><symbol viewBox="0 0 14 8" id="chevron-up" xmlns="http://www.w3.org/2000/svg"><path d="M7.1.2l6.5 6.6-1.2 1-5.3-5.4-5.4 5.4-1.1-1z"/></symbol><symbol viewBox="0 0 34 34" id="circles" xmlns="http://www.w3.org/2000/svg"><path d="M17 34c-5.3 0-10.3-2.4-13.5-6.7l1.6-1.2C7.9 29.8 12.3 32 17 32c.7 0 1.4-.1 2.1-.2l.3 2c-.8.1-1.6.2-2.4.2zm9.3-2.8l-1.1-1.7C29.5 26.8 32 22.1 32 17v-1.1l2-.1V17c0 5.7-2.9 11.1-7.7 14.2zM.4 20.6C.1 19.4 0 18.2 0 17c0-4.9 2.1-9.5 5.8-12.7l1.3 1.5C3.9 8.6 2 12.7 2 17c0 1.1.1 2.1.3 3.2l-1.9.4zM30.1 9.7C27.5 4.9 22.4 2 17 2c-1.4 0-2.9.2-4.2.6L12.2.7C13.8.2 15.4 0 17 0c6.2 0 11.8 3.3 14.8 8.7l-1.7 1z"/></symbol><symbol viewBox="0 0 17 17" id="clock" xmlns="http://www.w3.org/2000/svg"><path d="M8.5 16.5c-4.4 0-8-3.6-8-8s3.6-8 8-8 8 3.6 8 8-3.6 8-8 8zm0-15c-3.9 0-7 3.1-7 7s3.1 7 7 7 7-3.1 7-7-3.1-7-7-7z"/><path d="M10.1 11.4L8 9.2V5.5h1v3.3l1.9 1.8z"/></symbol><symbol viewBox="0 0 16 16" id="clock-bold" xmlns="http://www.w3.org/2000/svg"><path d="M9.7 11.6L7 9.6V5h2v3.6l1.9 1.4z"/><path d="M8 16c-4.4 0-8-3.6-8-8s3.6-8 8-8 8 3.6 8 8-3.6 8-8 8zM8 2C4.7 2 2 4.7 2 8s2.7 6 6 6 6-2.7 6-6-2.7-6-6-6z"/></symbol><symbol viewBox="0 0 16 16" id="clone" xmlns="http://www.w3.org/2000/svg"><path d="M16 11.8h-2.8v-1H15V1H5.2v1.8h-1V0H16z"/><path d="M11 5v10H1V5h10m1-1H0v12h12V4z"/></symbol><symbol viewBox="0 0 22 15" id="cloud" xmlns="http://www.w3.org/2000/svg"><path d="M11.8 13.5H18.5c1 0 1.9-.8 1.9-1.8 0-.7-.4-1.3-1-1.6l-.9-.5.1-1V8c0-3.6-2.8-6.4-6.3-6.4-3.1 0-5.7 2.3-6.2 5.4l-.2 1.3-1.4-.1h-.2c-1.5 0-2.7 1.2-2.7 2.7 0 1.5 1.2 2.7 2.7 2.7h7.5zm6.6 1.5H4.3C2 15 .1 13.1.1 10.8.1 8.5 2 6.6 4.3 6.6h.3C5.2 2.9 8.4 0 12.3 0c4.3 0 7.8 3.6 7.8 7.9v.8c1.1.6 1.8 1.7 1.8 2.9 0 1.8-1.5 3.3-3.3 3.3-.1.1-.2.1-.2.1z"/></symbol><symbol viewBox="0 0 19 14" id="clouds" xmlns="http://www.w3.org/2000/svg"><path d="M2.4 11.2C1.1 10.6.3 9.3.3 7.8c0-1.4.8-2.7 2.1-3.4C2.8 1.9 5 0 7.6 0c1.6 0 3.1.8 4.1 2 3.3.1 5.9 2.9 5.9 6.2v.1c.7.6 1.2 1.5 1.2 2.4 0 1.7-1.4 3.1-3.1 3.1H5.9c-1.7.1-3.2-1-3.5-2.6zm0-1.8C2.8 7.9 4 6.9 5.5 6.7 6 4.6 7.7 2.9 9.7 2.3c-.6-.5-1.4-.7-2.2-.7-2 0-3.6 1.5-3.7 3.5v.5l-.5.1c-.9.3-1.5 1.1-1.5 2.1 0 .6.2 1.2.6 1.6zm8.6 3H15.7c.9 0 1.6-.7 1.6-1.6 0-.6-.3-1.1-.8-1.4l-.5-.1v-.5-.5c0-2.6-2.1-4.7-4.6-4.7-2.3 0-4.2 1.7-4.6 4l-.1.6H6h-.1c-1.2 0-2.1 1-2.1 2.1s1 2.1 2.1 2.1H11z"/></symbol><symbol viewBox="0 0 24 19" id="cloudy" xmlns="http://www.w3.org/2000/svg"><path d="M15.2 17.1H21c.8 0 1.4-.6 1.4-1.4 0-.5-.3-1-.7-1.2l-.9-.5.1-1v-.5c0-3-2.4-5.4-5.3-5.4-2.6 0-4.8 1.9-5.2 4.5l-.1 1.4-1.4-.1h-.1c-1.2 0-2.1.9-2.1 2.1 0 1.2.9 2.1 2.1 2.1h6.4zm-9.8-3.5c-.8-1-1.3-2.2-1.3-3.5 0-3 2.5-5.5 5.5-5.5 1.4 0 2.7.5 3.7 1.4.7-.3 1.5-.4 2.3-.4 3.7 0 6.8 3.1 6.8 6.9v.7c.9.5 1.5 1.4 1.5 2.6 0 1.6-1.3 2.9-2.9 2.9H8.9h-.1c-2 0-3.6-1.6-3.6-3.6 0-.6.1-1 .2-1.5zm.9-1.3c.6-.6 1.5-.9 2.4-.9h.2c.3-1.9 1.4-3.6 2.9-4.6-.7-.4-1.4-.7-2.2-.7-2.2 0-4 1.8-4 4 .1.8.3 1.6.7 2.2zM8.9 1.1c0-.4.3-.8.8-.8.4 0 .8.3.8.8v1.4c0 .4-.3.8-.8.8-.4 0-.8-.3-.8-.8V1.1zM2.2 15.3c-.4.2-.8.1-1-.3s-.1-.8.3-1l1.2-.7c.4-.2.8-.1 1 .3s.1.8-.3 1l-1.2.7zm-1.5-6c-.4-.1-.7-.5-.6-.9 0-.4.4-.6.8-.6l1.3.2c.5.1.8.5.7.9-.1.4-.5.7-.9.6L.7 9.3zm2.6-5.6c-.3-.3-.2-.8.1-1 .3-.3.8-.2 1.1.1l.9 1c.3.3.2.8-.1 1.1-.4.2-.8.2-1.1-.1l-.9-1.1z"/></symbol><symbol viewBox="0 0 13 16" id="cultery" xmlns="http://www.w3.org/2000/svg"><path d="M5.3 1.4v.7c0 2.1 0 3.4-.6 4-.2.2-.5.3-.8.3h-.6V15c0 .2-.2.4-.4.4s-.4-.2-.4-.4V6.4h-.6c-.3 0-.6-.1-.8-.3-.6-.6-.6-2-.6-4v-.7c0-.2.2-.4.4-.4s.4.2.4.4v.7c0 1.7 0 3.1.4 3.5 0 0 .1.1.2.1h.6V1.4c0-.2.2-.4.4-.4s.4.2.4.4v4.2h.6c.1 0 .2 0 .2-.1.4-.4.4-1.8.4-3.5v-.7c0-.1.2-.3.4-.3s.4.2.4.4zM12.8 4c0 1.7-1.1 3.1-2.5 3.4V15c0 .2-.2.4-.4.4s-.4-.2-.4-.4V7.4C8.1 7.1 7 5.7 7 4 7 2.1 8.3.6 9.9.6c1.6 0 2.9 1.5 2.9 3.4zM9.9 6.6C11.1 6.6 12 5.4 12 4c0-1.4-.9-2.6-2.1-2.6-1.2 0-2.1 1.2-2.1 2.6 0 1.4.9 2.6 2.1 2.6z"/></symbol><symbol viewBox="0 0 16 2" id="dots" xmlns="http://www.w3.org/2000/svg"><path d="M1 0c.6 0 1 .4 1 1s-.4 1-1 1-1-.4-1-1 .4-1 1-1zM8 0c.6 0 1 .4 1 1s-.4 1-1 1-1-.4-1-1 .4-1 1-1zM15 0c.6 0 1 .4 1 1s-.4 1-1 1-1-.4-1-1 .4-1 1-1z"/></symbol><symbol id="en" viewBox="0 0 21 12" xml:space="preserve" xmlns="http://www.w3.org/2000/svg"><style>.bnst0{font-family:'Roboto-Bold'}.bnst1{font-size:16px}.bnst2{letter-spacing:1}</style><text transform="translate(-.274 12)" class="bnst0 bnst1 bnst2">EN</text></symbol><symbol id="envelope" viewBox="0 0 16 12" xml:space="preserve" xmlns="http://www.w3.org/2000/svg"><style>.bost0{fill:#fff}</style><path class="bost0" d="M14.3 0H1.7L8 4.8z"/><path class="bost0" d="M8 7.3l-8-6V12h16V1.3z"/></symbol><symbol viewBox="0 0 22 24" id="epayments" xmlns="http://www.w3.org/2000/svg"><path d="M17.1 22.5c-2.2.5-4.3.5-6.4-.1-2.2-.5-4.1-1.6-5.6-3.3-.9-.9-1.4-2-2-3.2-.8-1.7-1.1-3.5-.8-5.4.4-3.2 2.1-5.6 5-7.2.1 0 .1-.1.2-.1h-.2c-.4.2-.7.3-1.1.5-1.6.7-3 1.6-4.1 2.9C1 7.9.2 9.5.1 11.2c-.2 2.4.3 4.6 1.6 6.6 2.1 3.3 5.1 5.2 9.1 5.6 1.6.2 3.2.1 4.7-.3.6-.2 1.2-.4 1.6-.6.1 0 .1 0 0 0 .1 0 0 0 0 0zM7.6 2.6c2-.6 4-.7 6-.3 2 .3 3.8 1.2 5.2 2.7 1.3 1.4 1.9 3 1.7 4.9-.1 1.3-.5 2.6-1.1 3.8-.9 1.6-2.1 3-3.7 4l-.1.1h.2c1.7-.6 3.2-1.6 4.4-3 1.6-2 2.1-4.2 1.7-6.7-.4-2.3-1.7-4.1-3.6-5.5-1.8-1.3-3.9-2-6.1-2C8.1.6 4.9 2 2.4 5.1c-.4.5-.7 1-1 1.6l.3-.3c1.6-1.9 3.5-3.1 5.9-3.8zm9.2 4.6c-.4-.5-1-.8-1.5-1.1-1.3-.6-2.7-.8-4.1-.7-1.9.2-3.4 1-4.6 2.4-.5.5-.6.9-.6 1.4-.1 1.5.5 2.8 1.5 3.8.8.8 1.8 1.3 2.9 1.6.1 0 .2.1.3.1-.3-.3-.6-.7-.8-1.2-.3-.9-.4-1.8-.3-2.7.1-1.3.7-2.3 1.9-3 .4-.2.7-.4 1.1-.5 1.4-.5 2.8-.5 4.1.2h.1v-.1-.2zM5.5 9.7c0 .1-.1.1-.1.2-1.1 3.3.7 6.9 4.1 8.1.8.3 1.6.5 2.5.4 3.1-.4 5.4-2 6.8-4.7v-.1c-.1 0-.1 0-.1.1-1.1 1.2-2.5 1.8-4.1 2.1-.9.1-1.8 0-2.7-.1-1.4-.2-2.7-.6-3.9-1.4-1.3-.8-2.1-2-2.5-3.5V9.7zm7.1 1.1c-.4.2-.8.3-1.3.4h-1.1c0 .1.1.1.1.2.4.7.9 1.1 1.6 1.4 1.2.4 2.4.4 3.6 0 1.1-.5 1.9-1.2 2.3-2.4.2-.8.1-1.5-.5-2.1-.3-.3-.6-.5-1-.7-1.1-.4-2.2-.4-3.2 0-.2.1-.3.1-.5.2.1 0 .1 0 .2.1.5.3.9.7.9 1.3-.1.7-.4 1.3-1.1 1.6zm1.1 10.4c-2.8.3-5.4-.3-7.7-2v.1l.1.1c.9.8 1.9 1.5 3.1 2 1.5.6 3.1.9 4.8 1 1.4 0 2.7-.1 4-.6.8-.3 1.5-.6 2-1.2s1-1.3 1-2.2v-.5c-2.1 1.9-4.5 3-7.3 3.3z"/></symbol><symbol viewBox="0 0 18 18" id="event" xmlns="http://www.w3.org/2000/svg"><path d="M17 2h-2V1c0-.6-.4-1-1-1s-1 .4-1 1v1h-3V1c0-.6-.4-1-1-1S8 .4 8 1v1H5V1c0-.6-.4-1-1-1S3 .4 3 1v1H1c-.6 0-1 .4-1 1v14c0 .6.4 1 1 1h16c.5 0 1-.4 1-1V3c0-.6-.4-1-1-1zm-1 14H2V8h14v8zm0-10H2V4h14v2z"/></symbol><symbol viewBox="0 0 4 20" id="exclamation" xmlns="http://www.w3.org/2000/svg"><path d="M3.3 13.8H.6L.3.3h3.4l-.4 13.5zM.2 18c0-.2 0-.5.1-.7.1-.2.2-.4.4-.6s.3-.3.6-.4.5-.1.8-.1.5 0 .8.1.4.2.6.4.3.3.4.6c.1.2.1.4.1.7 0 .5-.2.9-.5 1.2s-.9.5-1.5.5-1-.2-1.3-.5-.5-.7-.5-1.2z"/></symbol><symbol viewBox="0 0 16 17" id="exhibition" xmlns="http://www.w3.org/2000/svg"><path d="M12.4 2H8.2V.4C8.2.2 8 0 7.8 0s-.4.2-.4.4V2h-4c-1.7 0-3 1.3-3 3v5c0 1.7 1.3 3 3 3H6l-1 2.9c-.1.2 0 .4.3.5h.1c.2 0 .3-.1.4-.3l1-3V13h.6v3c0 .2.2.4.4.4s.4-.2.4-.4v-3H9v.1l1 3c.1.2.2.3.4.3h.1c.2-.1.3-.3.3-.5l-1-2.9h2.6c1.7 0 3-1.3 3-3V5c0-1.7-1.3-3-3-3zm2.2 8c0 1.2-1 2.2-2.2 2.2h-9c-1.2 0-2.2-1-2.2-2.2V5c0-1.2 1-2.2 2.2-2.2h9c1.2 0 2.2 1 2.2 2.2v5z"/></symbol><symbol viewBox="0 0 9 15" id="facebook" xmlns="http://www.w3.org/2000/svg"><path d="M2.5 15V8.1H.3V5.7h2.2V3.4C2.5 1.7 3.6 0 6.4 0c1.1 0 2.1.3 2.1.3L8.4 3H6.9c-.6 0-1.1.5-1.1 1v1.8h3l-.4 2.3H5.8V15H2.5z"/></symbol><symbol viewBox="0 0 15 19" id="file" xmlns="http://www.w3.org/2000/svg"><path d="M2 17V2h6v4c0 .6.4 1 1 1h4v10H2zM12.2 5H10V2.8L12.2 5zM15 6c0-.6-.3-1.3-.7-1.7L10.7.7C10.3.3 9.6 0 9 0H1C.5 0 0 .4 0 1v17c0 .5.5 1 1 1h13c.6 0 1-.5 1-1V6z"/></symbol><symbol viewBox="0 0 18 17" id="filter" xmlns="http://www.w3.org/2000/svg"><path d="M10.2 17H7.8c-1 0-1.8-.8-1.8-1.8v-4.6L.6 5.2C.3 4.9.1 4.5.1 4V1.8C.1.8.9 0 1.9 0h14.2c1 0 1.8.8 1.8 1.8V4c0 .5-.2.9-.5 1.3L12 10.6v4.6c0 1-.8 1.8-1.8 1.8zM8 15h2V9.8l5.9-5.9V2H2.1v1.9L8 9.8V15zM2 3.8zM16.1 2z"/></symbol><symbol viewBox="0 0 12 15" id="filter-thin" xmlns="http://www.w3.org/2000/svg"><path d="M9.2 1.8l-2.5 4-.2.2v5.8l-1 .7V6l-.2-.3-2.5-4h6.4M11 .8H1l3.5 5.5v8l3-2v-6L11 .8z"/></symbol><symbol viewBox="0 0 18 18" id="fly" xmlns="http://www.w3.org/2000/svg"><path d="M13.9 17.3zM1.2 4.4l5.9 3c.6.3.7 1 .3 1.5L4 12.8c-.3.3-.7.4-1.1.3-.4-.1-.8-.2-1-.2-.2 0-.2 0-.3.1v.2c0 .1 0 .3.1.4l2.7 2.7c.1.1.3.1.4.1H5s0-.1.1-.3c0-.3 0-.6-.2-1-.1-.4 0-.8.3-1.1l3.9-3.4c.5-.4 1.3-.3 1.5.3l3 5.9.5-.3L12.4 8c-.1-.3 0-.7.3-.9.3-.3.8-.7 1.3-1.3l.1-.1L16 3.8c.6-.7 1-1.3 1-1.9 0-.3-.1-.5-.2-.6-.2-.2-.4-.3-.7-.3H16c-.6 0-1.2.4-1.8 1l-1.9 1.9-.1.1c-.5.5-.9 1-1.3 1.3-.2.3-.6.4-.9.3L1.4 3.8l-.2.6zm5.5 3.8L.3 5c-.3-.1-.4-.4-.3-.6L.7 3c.1-.2.3-.3.5-.2l9 1.8 3.3-3.3C14.3.5 15.1 0 16 0h.2c.5 0 1 .2 1.3.5.3.4.5.9.5 1.3 0 .9-.5 1.8-1.3 2.6l-3.3 3.3 1.8 9c0 .2-.1.4-.2.5l-1.4.8c-.2.1-.5 0-.6-.2l-3.2-6.4-3.9 3.4c.1.4.2.9.2 1.4 0 .3-.1.6-.3.9-.2.3-.6.4-.9.4-.3 0-.6-.1-1-.3L1 14.3c-.2-.3-.3-.7-.3-1 0-.4.2-.7.4-.9.3-.4.6-.4.8-.5.5 0 .9.1 1.4.2l3.4-3.9z"/></symbol><symbol viewBox="0 0 23 15" id="font" xmlns="http://www.w3.org/2000/svg"><path d="M9.9 11.6H4.5L3.3 15H.9L6.1.8h2.3L13.5 15h-2.4l-1.2-3.4zM5.1 9.7h4.2l-2.1-6-2.1 6zM20 12.8h-3.6l-.7 2.2h-1.6l3.4-9.2H19l3.4 9.2h-1.6l-.8-2.2zm-3.1-1.3h2.7l-1.3-3.9-1.4 3.9z"/></symbol><symbol viewBox="0 0 9 9.6" id="google-play" xmlns="http://www.w3.org/2000/svg"><path d="M8.7 5.2s-.7.4-1.8 1L5.5 4.8l1.4-1.4c1 .6 1.8 1 1.8 1s.3.2.3.4c-.1.3-.3.4-.3.4zm-3.4-.6L.7 0c.1 0 .2.1.4.1.6.3 3.5 2 5.6 3.1L5.3 4.6zm-5.1 5C0 9.4 0 9.1 0 9.1V.6S0 .3.2.1L5 4.9.2 9.6zM5.3 5l1.3 1.3C4.5 7.5 1.6 9.1 1 9.4c-.2.1-.3.1-.4.1L5.3 5z"/></symbol><symbol viewBox="0 0 22 14" id="google-plus" xmlns="http://www.w3.org/2000/svg"><path d="M.5 6.7C.6 3.3 3.7.4 7 .5c1.6-.1 3.1.6 4.4 1.6-.5.6-1.1 1.2-1.7 1.7-1.5-1-3.6-1.3-5.1-.1-2.1 1.5-2.2 4.9-.2 6.5 2 1.8 5.7.9 6.3-1.9H7V6.1h6.2c.1 1.7-.1 3.6-1.2 5-1.6 2.3-4.9 2.9-7.4 2C2.1 12.1.3 9.4.5 6.7zm17.3-2.2h1.9v1.9h1.9v1.9h-1.9v1.9h-1.9V8.3h-1.9v-2h1.9V4.5z"/></symbol><symbol viewBox="0 0 14 13" id="health" xmlns="http://www.w3.org/2000/svg"><path d="M12.6 8c0 .1-.1.2-.2.2H8.6V12c0 .1-.1.2-.2.2h-3c-.1 0-.2-.1-.2-.2V8.2H1.4c-.1 0-.2-.1-.2-.2V5c0-.1.1-.2.2-.2h3.8V1c0-.1.1-.2.2-.2h3c.1 0 .2.1.2.2v3.8h3.8c.1 0 .2.1.2.2v3zm-.2-4h-3V1c0-.6-.4-1-1-1h-3c-.6 0-1 .4-1 1v3h-3c-.6 0-1 .4-1 1v3c0 .6.4 1 1 1h3v3c0 .6.4 1 1 1h3c.6 0 1-.4 1-1V9h3c.6 0 1-.4 1-1V5c0-.6-.4-1-1-1z"/></symbol><symbol viewBox="0 0 16 15" id="heart" xmlns="http://www.w3.org/2000/svg"><path class="ccst0" d="M14.7 1.8C12.9 0 10 0 8.3 1.8L8 2l-.3-.2C6 0 3.1 0 1.3 1.8c-1.8 1.8-1.8 4.6 0 6.4l6.2 6.2c.1.1.3.2.4.2.2 0 .3-.1.4-.2l6.2-6.2c1.9-1.8 1.9-4.7.2-6.4z"/></symbol><symbol viewBox="0 0 22 19" id="heart-o" xmlns="http://www.w3.org/2000/svg"><path d="M11 18.8c-.4 0-.7-.1-1-.4l-.1-.1-7.5-7.5C0 8.4 0 4.4 2.4 2 3.6.8 5.1.2 6.8.2 8.4.2 9.9.8 11 1.8c2.4-2.2 6.2-2.2 8.6.2 2.4 2.4 2.4 6.4 0 8.8L12 18.4c-.3.3-.6.4-1 .4zM6.8 1.7c-1.3 0-2.4.5-3.3 1.4-1.8 1.8-1.8 4.8 0 6.7l7.5 7.5 7.6-7.5c1.8-1.8 1.8-4.8 0-6.7-1.8-1.8-4.8-1.8-6.7 0l-.9.8-.9-.9c-.9-.8-2-1.3-3.3-1.3z"/></symbol><symbol viewBox="0 0 10 16" id="highrise" xmlns="http://www.w3.org/2000/svg"><path d="M1.2 14.8v-4.1c.1 0 .1.1.2.1h4c.2 0 .4-.2.4-.4s-.2-.4-.4-.4h-4c-.1 0-.1 0-.2.1V8.7c.1 0 .1.1.2.1h4c.2 0 .4-.2.4-.4S5.6 8 5.4 8h-4c-.1 0-.1 0-.2.1V5.7c.1 0 .1.1.2.1h4.3C7 8.1 7.9 11.4 8 15H1.1c.1-.1.1-.1.1-.2M5.1 5H1.4c-.1 0-.1 0-.2.1V2.4C2.7 2.5 4 3.5 5.1 5m4.3 10h-.6c-.1-3.6-.9-6.8-2.2-9.2h.9c.2 0 .4-.2.4-.4-.1-.2-.3-.4-.5-.4H6.1c-1.3-2-3-3.2-4.9-3.4V1C1.2.8 1 .6.8.6S.4.8.4 1v13.8c0 .1 0 .1.1.2H.4c-.2 0-.4.2-.4.4s.2.4.4.4h7.7c.1.1.2.1.3.1.1 0 .2 0 .3-.1h.7c.2 0 .4-.2.4-.4s-.2-.4-.4-.4"/></symbol><symbol viewBox="0 0 18 18" id="home" xmlns="http://www.w3.org/2000/svg"><path d="M15.9 18H2.1C1 18 0 17 0 15.9V6.8c0-1 .6-2 1.4-2.5L7.5.5c.8-.5 2.1-.5 2.9 0l6.1 3.8c.9.5 1.5 1.5 1.5 2.5v9.1c0 1.1-1 2.1-2.1 2.1zM9 2.1c-.1 0-.3 0-.3.1L2.5 6c-.2.1-.4.6-.4.8v9.1h13.8V6.8c0-.2-.2-.6-.4-.7L9.3 2.2c0-.1-.2-.1-.3-.1z"/></symbol><symbol viewBox="0 0 11 20" id="hourglass" xmlns="http://www.w3.org/2000/svg"><path d="M2.2 6.6c.1.1.1.2.2.2l3.1 2.3 3.1-2.3c.1 0 .1-.1.2-.2l-3.2.9h-.3l-3.1-.9zM2 5.5h.1l3.4 1 3.4-1H9V1H2v4.5zm7 12h-.1l-3.4-1-3.4 1H2V19h7v-1.5zm0-1V14c0-.2-.2-.7-.4-.8l-3.1-2.3-3.1 2.3c-.2.1-.4.6-.4.8v2.5l3.4-1h.3l3.3 1zM1 19v-5c0-.6.4-1.3.8-1.6l2.4-1.8.2-.2.6-.4-.6-.4-.2-.2-2.4-1.8C1.4 7.3 1 6.6 1 6V1H.5C.2 1 0 .8 0 .5S.2 0 .5 0h10c.3 0 .5.2.5.5s-.2.5-.5.5H10v5c0 .6-.4 1.3-.8 1.6L6.8 9.4l-.2.2-.6.4.6.4.2.2 2.4 1.8c.4.3.8 1 .8 1.6v5h.5c.3 0 .5.2.5.5s-.2.5-.5.5H.5c-.3 0-.5-.2-.5-.5s.2-.5.5-.5H1z"/></symbol><symbol viewBox="0 0 19 19" id="info-circle" xmlns="http://www.w3.org/2000/svg"><path d="M9.5 18c4.7 0 8.5-3.8 8.5-8.5S14.2 1 9.5 1 1 4.8 1 9.5 4.8 18 9.5 18zm0 1C4.3 19 0 14.7 0 9.5S4.3 0 9.5 0 19 4.3 19 9.5 14.7 19 9.5 19zM9 7.1v6.8h1V7.1H9zM9 5v1h1V5H9z"/></symbol><symbol viewBox="0 0 17 17" id="instagram" xmlns="http://www.w3.org/2000/svg"><path d="M2 5.5v6C2 13.4 3.6 15 5.5 15h6c1.9 0 3.5-1.6 3.5-3.5v-6C15 3.6 13.4 2 11.5 2h-6C3.6 2 2 3.6 2 5.5zm-1.5 0c0-2.8 2.2-5 5-5h6c2.8 0 5 2.2 5 5v6c0 2.8-2.2 5-5 5h-6c-2.8 0-5-2.2-5-5v-6z"/><path d="M8.5 11C9.9 11 11 9.9 11 8.5S9.9 6 8.5 6 6 7.1 6 8.5 7.1 11 8.5 11zm0 1.5c-2.2 0-4-1.8-4-4s1.8-4 4-4 4 1.8 4 4-1.8 4-4 4zM13.5 4.5c0 .6-.4 1-1 1s-1-.4-1-1 .4-1 1-1 1 .4 1 1z"/></symbol><symbol viewBox="0 0 13 13" id="italic" xmlns="http://www.w3.org/2000/svg"><path d="M4.7 1.7H6c.3 0 .5.2.4.5L4 10.8c-.1.3-.4.5-.7.5H2.2L2 12h5.7l.2-.7H6.5c-.3 0-.5-.2-.4-.5l2.3-8.6c.1-.3.4-.5.7-.5h1.2l.2-.7H4.9l-.2.7z"/></symbol><symbol viewBox="0 0 18 17" id="job" xmlns="http://www.w3.org/2000/svg"><path d="M15 14.991c0 .006-.003.009-.007.009H3.007C3 15 3 15.001 3 14.991V13h12v1.991zM7 5h9s-.003 6-.001 6H2c0-.001.003-6 .001-6H7zm1-2h2V2H8v1zm7.999 0H12V1a1 1 0 00-1-1H7a1 1 0 00-1 1v2H2.001A2.004 2.004 0 000 4.997v6.006c0 .739.404 1.375 1 1.721v2.267C1 16.107 1.896 17 3.007 17h11.986c1.11 0 2.007-.9 2.007-2.009v-2.269c.595-.348 1-.985 1-1.719V4.997A1.997 1.997 0 0015.999 3z"/></symbol><symbol viewBox="0 0 18 15" id="link" xmlns="http://www.w3.org/2000/svg"><path d="M5.3 14.4c-.8 0-1.5-.3-2-.8l-1.9-1.9c-.5-.5-.8-1.2-.8-2s.3-1.5.8-2l3.9-3.9c1.1-1.1 2.9-1.1 4 0l1.9 1.9c.8.8 1 1.9.7 3-.1.1-.3.5-.6 1l-.8-.7c.2-.3.4-.7.5-.8.2-.7.1-1.4-.4-1.9l-2-1.9c-.7-.7-1.9-.7-2.6 0L2.1 8.3c-.4.3-.6.8-.6 1.3s.2 1 .5 1.3l2 1.9c.7.7 1.9.7 2.6 0l1.3-1.3.7.7-1.3 1.3c-.5.6-1.2.9-2 .9z"/><path d="M11.2 12.2c-.8 0-1.5-.3-2-.8l-2-2c-.8-.8-1-1.9-.7-3l.5-.7.9.5-.4.6c-.2.6 0 1.4.5 1.9l1.9 1.9c.7.7 1.9.7 2.6 0l3.9-3.9c.3-.3.5-.8.5-1.3s-.2-1-.5-1.3l-1.9-1.9c-.7-.7-1.9-.7-2.6 0L11 3l-.7-.7.9-.9c1.1-1.1 2.9-1.1 4 0l1.9 1.9c.5.5.8 1.2.8 2s-.3 1.5-.8 2l-3.9 3.9c-.5.7-1.3 1-2 1z"/></symbol><symbol viewBox="0 0 15 14" id="linkedin" xmlns="http://www.w3.org/2000/svg"><path d="M14.7 8.6V14h-3.2V9c0-1.3-.5-2.1-1.6-2.1-.8-.1-1.3.5-1.5 1.1-.1.2-.1.4-.1.7V14H5.1V4.6h3.2v1.3c.4-.6 1.2-1.6 2.8-1.6 2.1 0 3.6 1.4 3.6 4.3zM1.8 0C.7 0 0 .7 0 1.6c0 .9.7 1.6 1.7 1.6 1.1 0 1.8-.7 1.8-1.6C3.5.7 2.9 0 1.8 0zM.2 14h3.2V4.6H.2V14z"/></symbol><symbol viewBox="0 0 50 40" id="logo-brand" xmlns="http://www.w3.org/2000/svg"><path d="M28.3 7.5L29 3c.1-.8 0-1.5-.5-2-.5-.7-1.6-1-2.9-1-2.9 0-4.2 1.6-4.5 3.1l-.7 4.5c-.1.6-.1 1.3.5 2 .5.7 1.6 1 2.9 1 3 0 4.3-1.6 4.5-3.1zm-5.8-.2l.6-4.1c.1-.7.6-1.6 2.2-1.6.7 0 1.2.2 1.4.6.3.3.4.6.3 1.1l-.5 4c-.1.7-.6 1.6-2.2 1.6-.7 0-1.2-.2-1.5-.5-.3-.3-.4-.6-.3-1.1zM34 10.6c1.3 0 2.4-.4 3-1 .8-.7 1.1-1.5 1.2-2.1L39.4.2h-1.9l-1.1 7.2c-.2 1.1-.9 1.6-2.1 1.6-.7 0-1.1-.2-1.4-.5-.2-.3-.3-.7-.2-1.2L33.8.2h-1.9l-1.2 7.4c-.1.5-.1 1.4.5 2 .5.7 1.5 1 2.8 1zM43 7.1h1.8l1.3 3.3h2.3L47 6.8l.3-.1c1-.4 1.6-1.2 1.8-2.5l.2-1.3c.2-.9.1-1.6-.3-2-.4-.6-1.2-.8-2.5-.8h-4.3l-1.6 10.3h1.9l.5-3.3zm.7-5.3h2.1c.6 0 1 .1 1.2.4.2.2.3.5.2 1l-.1.9c-.1 1-.6 1.4-1.7 1.4h-2.2l.5-3.7zM4.3 15c-.5.4-.8 1-1 2.1-.3 2.2 0 2.6 2.3 3.1 1.7.4 2 .6 1.8 1.8-.2 1.1-.6 1.4-1.9 1.4-1 0-1.9-.2-2.9-.5l-.5 1.4c.8.4 1.9.6 3 .6 1.5 0 2.5-.3 3.2-.7.5-.4.8-1.1 1-2.2.1-.9.2-1.6-.1-2s-.9-.7-2.3-1c-.8-.3-1.3-.4-1.5-.6-.3-.3-.3-.7-.2-1.2.1-.9.5-1.2 1.7-1.2 1 0 1.8.1 2.8.3l.4-1.6c-1.2-.2-2.2-.3-2.9-.3-1.4 0-2.3.2-2.9.6zM13.6 21.4h2.1c2.4 0 3.6-.8 3.9-2.8l.2-1.4c.2-.9.1-1.6-.3-2-.4-.6-1.2-.8-2.5-.8h-4.2l-1.6 10.3h1.9l.5-3.3zm.7-5.2h2.1c.6 0 1 .1 1.2.4.2.2.3.5.2 1l-.1.9c-.1.8-.5 1.4-1.7 1.4h-2.1l.4-3.7zM26.1 14.3c-2.9 0-4.2 1.6-4.4 3.1l-.7 4.5c-.1.6-.1 1.3.5 2 .5.7 1.6 1 2.9 1 2.9 0 4.2-1.6 4.4-3.1l.7-4.5c.1-.8-.1-1.5-.5-2-.5-.7-1.6-1-2.9-1zm1.5 3.3l-.6 4.1c-.1.7-.6 1.6-2.2 1.6-.7 0-1.2-.2-1.5-.5s-.4-.6-.3-1.1l.6-4.1c.1-.7.6-1.6 2.2-1.6.7 0 1.2.1 1.5.5.3.3.4.6.3 1.1zM39.4 18.5l.2-1.3c.2-.9.1-1.6-.3-2-.4-.6-1.2-.8-2.5-.8h-4.3l-1.6 10.3h1.9l.5-3.3h1.8l1.3 3.3h2.4l-1.4-3.6.2-.1c1-.4 1.6-1.2 1.8-2.5zm-1.9-1l-.1.9c-.1 1-.6 1.4-1.7 1.4h-2.2l.5-3.7h2.1c.6 0 1 .1 1.2.4.2.2.3.5.2 1zM43 24.7h1.9l1.4-8.6h2.9l.2-1.6h-7.7l-.2 1.6h2.9zM5.6 28.7L.8 39h2l1-2.1h4L8 39h2L8.5 28.7H5.6zm-1.2 6.7l2.4-5.7.7 5.7H4.4zM14.6 32c.2-1.2.8-1.7 2-1.7.7 0 2 .1 2.9.2l.5-1.6c-.7-.1-1.8-.3-3.1-.3-2.4 0-3.9 1.1-4.2 3.1l-.7 4.5c-.2.8 0 1.6.4 2.1.5.6 1.4.9 2.7.9 1.2 0 2.4-.2 3.8-.4l.7-4.6h-1.8l-.5 3.3h-.2c-.7.1-1 .1-1.5.1-.6 0-1-.2-1.3-.5-.3-.3-.4-.8-.3-1.4l.6-3.7zM21.3 39h6.3l.2-1.6h-4.3l.5-2.8h4l.2-1.7h-4l.4-2.5h4.3l.3-1.6h-6.3zM37.1 36.1h-.5l-2.3-7.3h-2.6L30.1 39h1.8l1.1-6.9.4-.1 2.4 7h2.6L40 28.8h-1.8zM41.9 28.8l-.2 1.6h2.8L43.2 39h1.9l1.4-8.6h2.9l.2-1.6zM15.3 5.6L14 .1h-2l2.1 7.4-.5 2.9h1.9l.5-2.9L20.3.1h-1.9z"/></symbol><symbol viewBox="0 0 47 52" id="logo-icon" xmlns="http://www.w3.org/2000/svg"><path d="M33.4 18.7v14.5l12.9-7.3zM20.5 22.6l9.9-5.6-9.9-5.6zM9 30.7l8.5-4.8L9 21.1zM9 46.9l8.5-4.8L9 37.4zM9 14.6l8.5-4.8L9 5zM0 7.3l6.5-3.7L0 0zM0 20.7L6.5 17 0 13.4zM0 38.6l6.5-3.7L0 31.3zM0 52l6.5-3.6L0 44.7zM20.5 40.5l9.9-5.6-9.9-5.6z"/></symbol><symbol viewBox="0 0 17 61" id="long-arrow-down" xmlns="http://www.w3.org/2000/svg"><path d="M8 .5v57.9l-6.5-7.7-.7.6 7.7 9.2 7.7-9.2-.7-.6L9 58.4V.5z"/></symbol><symbol viewBox="0 0 61 17" id="long-arrow-left" xmlns="http://www.w3.org/2000/svg"><path d="M60.5 8H2.6l7.7-6.5-.6-.7L.5 8.5l9.2 7.7.6-.7L2.6 9h57.9z"/></symbol><symbol viewBox="0 0 61 17" id="long-arrow-right" xmlns="http://www.w3.org/2000/svg"><path d="M.5 9h57.9l-7.7 6.5.6.7 9.2-7.7L51.3.8l-.6.7L58.4 8H.5z"/></symbol><symbol viewBox="0 0 17 61" id="long-arrow-up" xmlns="http://www.w3.org/2000/svg"><path d="M9 60.5V2.6l6.5 7.7.7-.6L8.5.5.8 9.7l.7.6L8 2.6v57.9z"/></symbol><symbol viewBox="0 0 12 14" id="map-marker" xmlns="http://www.w3.org/2000/svg"><path d="M6 14L1.8 9.4c-2-2.2-2-5.4 0-7.6 2.1-2.3 5.7-2.5 8-.4s2.5 5.7.4 8L6 14zM6 1h-.2c-1.2.1-2.4.6-3.2 1.5C.9 4.3.9 7 2.6 8.8L6 12.5l3.4-3.7C11.1 6.9 11 4 9.1 2.2 8.3 1.4 7.2 1 6 1z"/></symbol><symbol viewBox="0 0 10 2" id="minus" xmlns="http://www.w3.org/2000/svg"><path d="M0 0v2h10V0z"/></symbol><symbol viewBox="0 0 16 13" id="mist" xmlns="http://www.w3.org/2000/svg"><path d="M.1 3.7V2.2c.5 0 .9-.2 1.7-.6.1 0 .2-.1.3-.2C3.3.6 4 .3 5.1.3c.9 0 1.7.4 2.6 1.1l.3.3s.3.2.3.3c1.1 1 1.8 1.3 2.8 1.3 1 0 1.6-.3 2.3-.9.1 0 .4-.3.5-.4.6-.5 1.2-.8 1.9-.8v1.5c-.3 0-.6.1-1 .4-.1.1-.4.4-.5.4-1 .8-1.9 1.2-3.3 1.2S8.7 4.2 7.3 3l-.2-.2c-.1-.1-.2-.2-.3-.2-.7-.6-1.2-.8-1.7-.8-.7 0-1.2.2-2.2.8-.1.1-.2.1-.3.2-.9.6-1.6.9-2.5.9m0 4V6.2c.5 0 .9-.2 1.7-.6.1 0 .2-.1.3-.2 1.2-.8 1.9-1.1 3-1.1.9 0 1.7.4 2.6 1.1l.3.3s.3.2.3.3c1.1 1 1.8 1.3 2.8 1.3 1 0 1.6-.3 2.3-.9.1 0 .4-.3.5-.4.6-.5 1.2-.8 1.9-.8v1.5c-.3 0-.6.1-1 .4-.1.1-.4.4-.5.4-1 .8-1.9 1.2-3.3 1.2S8.7 8.2 7.3 7l-.2-.2c-.1-.1-.2-.2-.3-.2-.7-.6-1.2-.8-1.7-.8-.7 0-1.2.2-2.2.8-.1.1-.2.1-.3.2-.9.6-1.6.9-2.5.9m0 4v-1.5c.5 0 .9-.2 1.7-.6.1 0 .2-.1.3-.2 1.2-.8 1.9-1.1 3-1.1.9 0 1.7.4 2.6 1.1l.3.3s.3.2.3.3c1.1 1 1.8 1.3 2.8 1.3 1 0 1.6-.3 2.3-.9.1 0 .4-.3.5-.4.6-.5 1.2-.8 1.9-.8v1.5c-.3 0-.6.1-1 .4-.1.1-.4.4-.5.4-1 .8-1.9 1.2-3.3 1.2s-2.3-.5-3.7-1.7c-.1-.1-.3-.2-.3-.3-.1-.1-.2-.2-.3-.2-.6-.5-1.1-.7-1.6-.7-.7 0-1.2.2-2.2.8-.2.1-.2.2-.3.2-.9.6-1.6.9-2.5.9"/></symbol><symbol viewBox="0 0 16 15" id="moon" xmlns="http://www.w3.org/2000/svg"><path d="M7.9 0C3.8 0 .4 3.4.4 7.5S3.8 15 7.9 15s7.5-3.4 7.5-7.5c0-.4 0-.7-.1-1.1C14.9 9 12.6 11 9.9 11c-3 0-5.5-2.5-5.5-5.5 0-2.7 2-5 4.6-5.4C8.6 0 8.3 0 7.9 0M5.1 1.4C4.2 2.5 3.6 4 3.6 5.5c0 3.5 2.8 6.3 6.3 6.3 1.5 0 3-.6 4.1-1.5-1.1 2.3-3.4 3.9-6.1 3.9-3.7 0-6.7-3-6.7-6.7 0-2.7 1.6-5 3.9-6.1"/></symbol><symbol viewBox="0 0 19 13" id="panorama" xmlns="http://www.w3.org/2000/svg"><path d="M.5 12.6V.4l.7.2s4.2 1.5 8.3 1.5c4.1 0 8.3-1.5 8.3-1.5l.7-.2v12.2l-.7-.2s-4.2-1.5-8.3-1.5c-4.1 0-8.3 1.5-8.3 1.5l-.7.2zm9-2.7c3.3 0 6.6.9 8 1.4V1.8c-1.4.4-4.7 1.4-8 1.4s-6.6-.9-8-1.4v9.5c1.4-.5 4.7-1.4 8-1.4z"/></symbol><symbol viewBox="0 0 18 18" id="pen" xmlns="http://www.w3.org/2000/svg"><path d="M7 12.6l-2.1-2.1L13.4 2l2.1 2.1L7 12.6zm-4.7 2.6l.7-2.8.5-.5 1 1.1 1.1 1-.5.5-2.8.7zM16.9 2.7L14.8.6c-.8-.8-2.1-.8-2.8 0L2.8 9.8l-1.4 1.4c-.1.1-.2.3-.3.5L0 16.3c-.2.7.5 1.4 1.2 1.2l4.6-1.1c.2 0 .3-.1.5-.3l1.4-1.4 9.2-9.2c.8-.7.8-2 0-2.8z"/></symbol><symbol viewBox="0 0 16 16" id="pencil" xmlns="http://www.w3.org/2000/svg"><path d="M14.9 2.1l-1-1c-.8-.8-2.2-.8-3 0l-8.9 9c-.1.1-.1.1-.1.2L.6 14.9c0 .2 0 .3.1.5.1.1.2.1.3.1h.1l4.6-1.3c.1 0 .1-.1.2-.1l8.9-8.9c.4-.4.6-.9.6-1.5.1-.7-.1-1.2-.5-1.6zM5.4 13.3l-3.7 1.1 1.1-3.7L10 3.5l2.7 2.7-7.3 7.1zm8.8-8.9l-1 1-2.7-2.7 1-1c.5-.5 1.2-.5 1.7 0l1 1c.2.2.3.5.3.8.1.4-.1.7-.3.9z"/></symbol><symbol viewBox="0 0 16 16" id="phone" xmlns="http://www.w3.org/2000/svg"><path d="M11.5 15.5c-.8 0-3.6-.3-7.2-3.8C.8 8.4.5 4.8.5 4.4.5 3.9.6 2 3 .7 3.3.5 4.1.3 4.5.7c.1.1 1.9 3.2 2 3.2.1.2.1.3.1.5 0 .3-.1.5-.4.8-.2.3-.5.5-.7.7-.2.1-.4.3-.6.4-.1.1-.1.2-.1.2s.1 1 2 2.7c1.9 1.7 2.8 2.1 2.8 2.1s.1 0 .1-.1c.1-.1.2-.3.4-.5.3-.4.5-.6.6-.7.5-.5.9-.5 1.3-.3 0 0 3 1.7 3.2 1.9.4.4.1 1.3 0 1.5-.7 1.9-2.7 2.4-3.7 2.4.1 0 .1 0 0 0zm-7.7-14c-.1 0-.3 0-.4.1-1.9 1-2 2.3-2 2.8.1.3.4 3.6 3.6 6.6 3.6 3.4 6.1 3.5 6.6 3.5 0 0 2 0 2.8-1.9.1-.1.1-.3.1-.4-.4-.3-2.7-1.6-2.8-1.7 0 0-.1 0-.2.1s-.3.4-.5.6c-.2.3-.4.5-.5.6-.2.3-.6.6-1.2.4-.3-.1-1.3-.7-3.2-2.3C4 8 3.8 6.8 3.8 6.5c0-.4.2-.7.4-.8.2-.2.4-.4.7-.6.2-.1.4-.3.6-.5l.2-.2c-.2-.2-1.5-2.3-1.9-2.9z"/></symbol><symbol viewBox="0 0 18 13" id="picture" xmlns="http://www.w3.org/2000/svg"><path d="M3 11.4l.6.5 4.6-5.6 4.2 5 .6-.5L8.2 5zM11.4 8.8l.6.4 1.2-1.5 2.1 2.7.7-.5-2.8-3.6z"/><path d="M15.4 0h-13C1.3 0 .4.9.4 2v9c0 1.1.9 2 2 2h13c1.1 0 2-.9 2-2V2c0-1.1-.9-2-2-2zM1.2 2c0-.7.5-1.2 1.2-1.2H5V1c0 2-1.6 3.6-3.6 3.6h-.2V2zm15.4 9c0 .7-.5 1.2-1.2 1.2h-13c-.7 0-1.2-.5-1.2-1.2V5.4h.2c2.4 0 4.4-2 4.4-4.4V.8h9.6c.7 0 1.2.5 1.2 1.2v9z"/></symbol><symbol viewBox="0 0 17 13" id="picture-bold" xmlns="http://www.w3.org/2000/svg"><path d="M14.5 0h-12C1.1 0 0 1.1 0 2.4v8.1C0 11.9 1.1 13 2.5 13h12c1.4 0 2.5-1.1 2.5-2.4V2.4C17 1.1 15.9 0 14.5 0zm-12 1.3h2.1v.3c0 1.6-1.4 3-3 3h-.3V2.4c0-.6.5-1.1 1.2-1.1zm13.2 9.3c0 .6-.5 1.2-1.2 1.2H3.7l4.2-5 3.8 4.4 1-.8-1.1-1.3.9-1.1 1.9 2.4 1-.8-2.9-3.7-1.7 2.2-2.9-3.3L2.6 11l1 .8H2.5c-.7 0-1.2-.5-1.2-1.2V5.8h.3c2.4 0 4.3-1.9 4.3-4.2v-.3h8.6c.7 0 1.2.5 1.2 1.2v8.1z"/></symbol><symbol viewBox="0 0 18 18" id="plane" xmlns="http://www.w3.org/2000/svg"><path d="M13.9 17.3zM1.2 4.4l5.9 3c.6.3.7 1 .3 1.5L4 12.8c-.3.3-.7.4-1.1.3-.4-.1-.8-.2-1-.2-.2 0-.2 0-.3.1v.2c0 .1 0 .3.1.4l2.7 2.7c.1.1.3.1.4.1H5s0-.1.1-.3c0-.3 0-.6-.2-1-.1-.4 0-.8.3-1.1l3.9-3.4c.5-.4 1.3-.3 1.5.3l3 5.9.5-.3L12.4 8c-.1-.3 0-.7.3-.9.3-.3.8-.7 1.3-1.3l.1-.1L16 3.8c.6-.7 1-1.3 1-1.9 0-.3-.1-.5-.2-.6-.2-.2-.4-.3-.7-.3H16c-.6 0-1.2.4-1.8 1l-1.9 1.9-.1.1c-.5.5-.9 1-1.3 1.3-.2.3-.6.4-.9.3L1.4 3.8l-.2.6zm5.5 3.8L.3 5c-.3-.1-.4-.4-.3-.6L.7 3c.1-.2.3-.3.5-.2l9 1.8 3.3-3.3C14.3.5 15.1 0 16 0h.2c.5 0 1 .2 1.3.5.3.4.5.9.5 1.3 0 .9-.5 1.8-1.3 2.6l-3.3 3.3 1.8 9c0 .2-.1.4-.2.5l-1.4.8c-.2.1-.5 0-.6-.2l-3.2-6.4-3.9 3.4c.1.4.2.9.2 1.4 0 .3-.1.6-.3.9-.2.3-.6.4-.9.4-.3 0-.6-.1-1-.3L1 14.3c-.2-.3-.3-.7-.3-1 0-.4.2-.7.4-.9.3-.4.6-.4.8-.5.5 0 .9.1 1.4.2l3.4-3.9z"/></symbol><symbol viewBox="0 0 33 46" id="play" xmlns="http://www.w3.org/2000/svg"><path d="M3.5 6.3l23.8 16.9L3.5 40V6.3M.5.5v45.3l32-22.7L.5.5z"/></symbol><symbol viewBox="0 0 15 14" id="play-circle" xmlns="http://www.w3.org/2000/svg"><path d="M7.4 0c3.9 0 7 3.1 7 7s-3.1 7-7 7-7-3.1-7-7 3.1-7 7-7zm0 13.2c3.4 0 6.2-2.8 6.2-6.2S10.8.8 7.4.8C4 .8 1.2 3.6 1.2 7s2.8 6.2 6.2 6.2zm2.3-7.4c.9.6.9 1.5 0 2L7.1 9.3c-.3.2-.5.3-.8.3-.6 0-.9-.4-.9-1.2V5.2c0-.8.4-1.2.9-1.2.2 0 .5.1.8.2l2.6 1.6zm-.4 1.3c.2-.1.3-.3.3-.3 0-.1-.1-.2-.3-.3L6.7 4.9c-.2-.1-.3-.1-.4-.1-.1 0-.1.4-.1.4v3.1s0 .4.1.4c0 0 .2 0 .4-.1l2.6-1.5z"/></symbol><symbol viewBox="0 0 10 10" id="plus" xmlns="http://www.w3.org/2000/svg"><path d="M4.1 4H0v2h4.1v4h1.8V6H10V4H5.9V0H4.1z"/></symbol><symbol viewBox="0 0 18 18" id="post" xmlns="http://www.w3.org/2000/svg"><path d="M7.011 12.606L4.89 10.484 13.375 2s2.12 2.123 2.116 2.127l-8.48 8.48zm-4.676 2.555l.636-2.758.504-.504 1.061 1.061 1.06 1.06-.503.504-2.758.637zM16.91 2.707L14.79.585a2.001 2.001 0 00-2.834.005L2.768 9.777l-1.414 1.415a.99.99 0 00-.267.482L.027 16.27a1 1 0 001.198 1.2l4.597-1.06c.182-.043.35-.136.482-.268l1.414-1.415 9.188-9.187a2.002 2.002 0 00.004-2.833z"/></symbol><symbol viewBox="0 0 19 19" id="print" xmlns="http://www.w3.org/2000/svg"><path d="M15.8 4h-.5V2.9c0-1.5-1.3-2.8-2.8-2.8h-6C5 .1 3.7 1.4 3.7 2.9V4h-.5C1.7 4 .4 5.2.4 6.7v4.5c0 1.5 1.3 2.8 2.8 2.8h.4v3.5c0 .8.6 1.4 1.4 1.4h8.8c.8 0 1.4-.6 1.4-1.4V14h.5c1.6 0 2.8-1.2 2.8-2.8V6.7c.1-1.5-1.2-2.7-2.7-2.7zm-11-1.1c0-.9.8-1.7 1.8-1.7h5.9c1 0 1.8.8 1.8 1.7V4H4.8V2.9zm9.4 14.6c0 .2-.2.3-.3.3H5.1c-.2 0-.3-.2-.3-.3v-5.8h9.4v5.8zm3.3-6.3c0 .9-.8 1.7-1.8 1.7h-.5v-1.2h.8c.3 0 .5-.2.5-.5s-.2-.5-.5-.5H2.9c-.3 0-.5.2-.5.5s.2.5.5.5h.8v1.2h-.5c-1 0-1.8-.8-1.8-1.7V6.7c.1-.9.9-1.7 1.8-1.7h12.5c1 0 1.8.8 1.8 1.7v4.5z"/></symbol><symbol viewBox="0 0 13 13" id="quote" xmlns="http://www.w3.org/2000/svg"><path d="M1.1 11l1.7-5.1-2-.3C.4 5.3 0 4.7 0 3.8 0 2.1 1.2 1 2.7 1c1.5 0 2.8 1.1 2.8 2.7 0 1.4-.6 2.5-1.4 3.7l-2.6 4-.4-.4zm7.3 0l1.7-5.1L8 5.6c-.4-.3-.8-.9-.8-1.8C7.2 2.1 8.5 1 10 1c1.5 0 2.7 1.1 2.7 2.7 0 1.4-.6 2.5-1.4 3.7l-2.5 4-.4-.4z"/></symbol><symbol viewBox="0 0 19 16" id="rain" xmlns="http://www.w3.org/2000/svg"><path d="M3.7 13.2c-2 0-3.6-1.6-3.6-3.6S1.7 6 3.7 6H4C4.5 2.7 7.3.2 10.7.2c3.7 0 6.8 3.1 6.8 6.9v.7c.9.5 1.5 1.4 1.5 2.6 0 1.6-1.3 2.9-2.9 2.9H16v-1.5c.8 0 1.4-.6 1.4-1.4 0-.5-.3-1-.7-1.2l-.9-.5.1-1v-.5c0-3-2.4-5.4-5.3-5.4C8 1.7 5.8 3.7 5.4 6.3l-.2 1.3-1.3-.1h-.1c-1.2 0-2.1.9-2.1 2.1 0 1.2.9 2.1 2.1 2.1h.1l.1 1.5h-.3zm3.6-3.5l1.3.7-2.7 5.3-1.3-.7 2.7-5.3zm3 0l1.3.7-2.7 5.3-1.3-.7 2.7-5.3zm3 0l1.3.7-2.7 5.3-1.3-.7 2.7-5.3z"/></symbol><symbol viewBox="0 0 24 21" id="rainy" xmlns="http://www.w3.org/2000/svg"><path d="M5.4 13.4c-.8-1-1.3-2.2-1.3-3.5 0-3 2.5-5.5 5.5-5.5 1.4 0 2.7.5 3.7 1.4.7-.3 1.5-.4 2.3-.4 3.7 0 6.8 3.1 6.8 6.9v.7c.9.5 1.5 1.4 1.5 2.6 0 1.6-1.3 2.9-2.9 2.9h-.1V17h.1c.8 0 1.4-.6 1.4-1.4 0-.5-.3-1-.7-1.2l-.9-.5.1-1v-.5c0-3-2.4-5.4-5.3-5.4-2.6 0-4.8 1.9-5.2 4.5l-.2 1.4-1.4-.1h-.1c-1.2 0-2.1.9-2.1 2.1 0 1.2.9 2.1 2.1 2.1h.1l.1 1.5h-.1c-2 0-3.6-1.6-3.6-3.6 0-.6.1-1.1.2-1.5zm.9-1.3c.6-.6 1.5-.9 2.4-.9h.2c.3-1.9 1.4-3.6 2.9-4.6-.7-.4-1.4-.7-2.2-.7-2.2 0-4 1.8-4 4 .1.8.3 1.5.7 2.2zM8.9.9c0-.4.3-.8.8-.8.4 0 .8.3.8.8v1.4c0 .4-.3.8-.8.8-.4-.1-.8-.5-.8-.9V.9zM2.2 15c-.4.2-.8.1-1-.3s-.1-.8.3-1l1.2-.7c.4-.2.8-.1 1 .3s.1.8-.3 1l-1.2.7zM.7 9C.3 9 0 8.6.1 8.2c.1-.4.5-.7.9-.6l1.3.2c.4.1.7.5.6.9-.1.4-.5.7-.9.6L.7 9zm2.6-5.5c-.3-.4-.2-.8.1-1.1.3-.3.8-.2 1.1.1l.9 1c.3.3.2.8-.1 1.1-.4.3-.8.2-1.1-.1l-.9-1zm9 11.4l1.3.7-2.6 5.3-1.3-.7 2.6-5.3zm3 0l1.3.7-2.6 5.3-1.3-.7 2.6-5.3zm3 0l1.3.7-2.6 5.3-1.3-.7 2.6-5.3z"/></symbol><symbol viewBox="0 0 13 14" id="refresh" xmlns="http://www.w3.org/2000/svg"><path d="M2.2 1.9l.9.1C1.5 3.1.5 4.9.5 6.8c0 2.5 1.7 4.7 4.1 5.5l.7.2v-1.4L5 11c-1.9-.6-3.1-2.3-3.1-4.2 0-1.6.9-3.1 2.3-3.8L4 4.3l1.4.3.7-3.4L2.5.5l-.3 1.4zM12.5 6.8c0-2.6-1.8-4.9-4.4-5.6l-.7-.1v1.4l.3.1c2 .5 3.3 2.3 3.3 4.3 0 1.7-1 3.2-2.5 3.9l.2-1-1.3-.3-.7 3.4 3.6.7.3-1.4-1.2-.2c1.9-1.1 3.1-3 3.1-5.2z"/></symbol><symbol viewBox="0 0 18 18" id="sale" xmlns="http://www.w3.org/2000/svg"><path d="M15.969 7.479c0 .025-.107.286-.126.304L8.07 15.556 2.413 9.9l7.773-7.774c.016-.016.282-.126.304-.126h5.479v5.479zM16.962 0c.556 0 1.007.457 1.007 1.007v6.472c0 .556-.318 1.324-.712 1.718l-8.475 8.476a1.01 1.01 0 01-1.421.003L.293 10.608a1.006 1.006 0 01.003-1.421L8.772.712C9.165.319 9.94 0 10.49 0h6.472zm-2.53 4.95a.999.999 0 10-1.413-1.414.999.999 0 101.414 1.414z"/></symbol><symbol viewBox="0 0 18 17" id="search" xmlns="http://www.w3.org/2000/svg"><path d="M16.7 14.5l-3.3-3.3c.8-1.1 1.2-2.5 1.2-3.9 0-3.7-3-6.8-6.8-6.8S1 3.5 1 7.3s3 6.8 6.8 6.8c1.4 0 2.8-.4 3.9-1.2l3.3 3.3c.2.2.5.3.8.3.3 0 .6-.1.8-.3.2-.2.3-.5.3-.8.1-.4 0-.7-.2-.9zm-4-7.2c0 2.7-2.2 4.9-4.9 4.9S2.9 10 2.9 7.3s2.2-4.9 4.9-4.9 4.9 2.2 4.9 4.9z"/></symbol><symbol id="sent" viewBox="0 0 86 86" xml:space="preserve" xmlns="http://www.w3.org/2000/svg"><style>.dpst0{fill:#fff}.dpst1{fill:#c91b1b;stroke:#000;stroke-miterlimit:10}</style><path class="dpst0" d="M43.5 86C19.5 86 0 66.9 0 43.5 0 19.1 19.1 0 43.5 0 66.9 0 86 19.5 86 43.5c0 8.3-2.5 16.4-7.2 23.5l-1.7-1.1c4.5-6.7 6.8-14.4 6.8-22.3C84 20.6 65.8 2 43.5 2 20.2 2 2 20.2 2 43.5 2 65.8 20.6 84 43.5 84c7.2 0 14.1-1.9 20.4-5.7l1 1.7c-6.5 3.9-13.9 6-21.4 6z"/><path class="dpst0" d="M36.7 54.5L26.3 44.1l1.4-1.4 9 9 21.2-21.2 1.4 1.4z"/><path id="dpOval" class="dpst0" d="M65 81c1.7 0 3-1.3 3-3s-1.3-3-3-3-3 1.3-3 3 1.3 3 3 3z"/><path class="dpst1" d="M528-77h10v2h-10z"/></symbol><symbol viewBox="0 0 15 19" id="service" xmlns="http://www.w3.org/2000/svg"><path d="M2 17V2h6v4c0 .6.4 1 1 1h4v10H2zM12.2 5H10V2.8L12.2 5zM15 6c0-.6-.3-1.3-.7-1.7L10.7.7C10.3.3 9.6 0 9 0H1C.5 0 0 .4 0 1v17c0 .5.5 1 1 1h13c.6 0 1-.5 1-1V6z"/></symbol><symbol viewBox="0 0 19 20" id="share" xmlns="http://www.w3.org/2000/svg"><path d="M15.4 12.8c-1.2 0-2.2.5-2.9 1.4l-5.5-3c.1-.4.2-.8.2-1.2 0-.4-.1-.8-.2-1.2l5.5-3.1c.7.9 1.7 1.4 2.9 1.4 2 0 3.6-1.6 3.6-3.6S17.4-.1 15.4-.1s-3.6 1.6-3.6 3.6c0 .4.1.8.2 1.2L6.5 7.8C5.8 7 4.8 6.4 3.6 6.4 1.6 6.4 0 8 0 10s1.6 3.6 3.6 3.6c1.2 0 2.2-.6 2.9-1.4l5.5 3.1c-.1.4-.2.8-.2 1.2 0 2 1.6 3.6 3.6 3.6s3.6-1.6 3.6-3.6-1.6-3.7-3.6-3.7zm0-11.7c1.4 0 2.5 1.1 2.5 2.5s-1.1 2.5-2.5 2.5-2.5-1.1-2.5-2.5 1.1-2.5 2.5-2.5zM3.6 12.5c-1.4 0-2.5-1.1-2.5-2.5s1.1-2.5 2.5-2.5S6.1 8.6 6.1 10c0 1.3-1.1 2.5-2.5 2.5zm11.8 6.4c-1.4 0-2.5-1.1-2.5-2.5s1.1-2.5 2.5-2.5 2.5 1.1 2.5 2.5-1.1 2.5-2.5 2.5z"/></symbol><symbol viewBox="0 0 11 17" id="skyscraper" xmlns="http://www.w3.org/2000/svg"><path d="M10.6 16.1h-.8c0-1.4.2-8.8-1.2-15.6 0-.2-.2-.3-.4-.3C6.6 0 4.2 0 2.5.1c-.2 0-.3.2-.4.3C.8 8.9.9 14.8 1 16.1H.4c-.2 0-.4.2-.4.4s.2.5.4.5h10.2c.2 0 .4-.2.4-.4s-.2-.5-.4-.5zM7.2.9c-.1 4.3-1.1 7-1.9 7S3.5 5.2 3.4.9C4.7.8 6.1.8 7.2.9zm-4.4 1C3 5.5 3.9 8.7 5.4 8.7c1.6 0 2.5-3.4 2.6-7 1.2 6.5 1 13.1 1 14.4H4.1c.1-.1.1-.2.1-.3v-3.4c0-.2-.2-.4-.4-.4s-.4.2-.4.4v3.4c0 .1 0 .2.1.3H1.8c0-1.1-.2-6.4 1-14.2z"/></symbol><symbol viewBox="0 0 16 16" id="snow" xmlns="http://www.w3.org/2000/svg"><path d="M7.3 7.3h-2l-.1-.2-2.7-2.7-1 1 1.7 1.9H.3v1.5h2.9l-1.7 1.8 1 1 2.8-2.8h2v1.8l-2.9 2.8 1 1.2 1.9-1.7v2.9h1.5v-2.9l1.8 1.7 1-1.2-2.8-2.8V8.8h1.8l.3.1 2.5 2.7 1.2-1-1.7-1.8h2.9V7.3h-2.9l1.7-1.9-1.2-1-2.8 2.9H8.8v-2l2.8-2.8-1-1-1.8 1.7V.3H7.3v2.9L5.4 1.5l-1 1 2.9 2.8z"/></symbol><symbol viewBox="0 0 12 18" id="sort" xmlns="http://www.w3.org/2000/svg"><path d="M6 17.7L.5 12.2l1.4-1.4L6 14.9l4.1-4.1 1.4 1.4zM10.1 7.2L6 3.1 1.9 7.2.5 5.8 6 .3l5.5 5.5z"/></symbol><symbol viewBox="0 0 13 12" id="star" xmlns="http://www.w3.org/2000/svg"><path d="M6.4 0l1.4 4.4h4.7L8.7 7.1l1.5 4.4-3.8-2.7-3.8 2.7 1.5-4.4L.3 4.4H5z"/></symbol><symbol viewBox="0 0 19 18" id="star-bold" xmlns="http://www.w3.org/2000/svg"><path d="M9.5 3.9l1.3 2.6.5.9 1 .2 2.9.4-2.1 2-.8.7.2 1 .5 2.8-2.6-1.3-.9-.5-.9.5L6 14.6l.5-2.8.2-1-.8-.8-2.1-2 2.9-.4 1-.2.5-.9 1.3-2.6m0-3.5c-.3 0-.6.2-.9.7L6.4 5.6l-4.9.7C.4 6.5.2 7.2 1 8l3.6 3.5-.8 4.9c-.1.8.2 1.3.7 1.3.2 0 .4-.1.7-.2l4.4-2.3 4.4 2.3c.3.1.5.2.7.2.5 0 .8-.5.7-1.3l-.8-4.9L18 8c.8-.8.5-1.5-.5-1.7l-4.9-.7-2.2-4.4c-.3-.5-.6-.8-.9-.8z"/></symbol><symbol viewBox="0 0 6 12" id="star-half" xmlns="http://www.w3.org/2000/svg"><path d="M12 4.41h.1l-.1.074V4.41zM6 8.834l-3.753 2.715 1.443-4.41L-.077 4.41h4.655L6 .04v8.792z" fill="#000" fill-rule="evenodd"/></symbol><symbol viewBox="0 0 19 20" id="sun" xmlns="http://www.w3.org/2000/svg"><path d="M1.9 6.3l1 .6h.3c.2 0 .4-.1.5-.3.2-.2.1-.6-.2-.7l-1-.6c-.3-.2-.6-.1-.8.2-.1.1-.1.3-.1.4.1.2.2.3.3.4zM5.4 4c.1.2.3.3.5.3.1 0 .2 0 .3-.1.2-.2.3-.5.2-.8l-.6-1c-.1-.1-.2-.2-.4-.3-.1 0-.3 0-.4.1-.3.2-.4.5-.2.8l.6 1zM3.4 13.1c-.2 0-.3 0-.4.1l-1 .6-.3.3c0 .1 0 .3.1.4.1.2.3.3.5.3.1 0 .2 0 .3-.1l1-.6.3-.3c0-.1 0-.3-.1-.4-.2-.2-.3-.3-.4-.3zM17.1 13.7l-1-.6c-.1-.1-.3-.1-.4-.1-.1 0-.3.1-.3.3-.1.1-.1.3-.1.4 0 .1.1.3.3.4l1 .6c.1.1.2.1.3.1.2 0 .4-.1.5-.3.1-.3 0-.6-.3-.8zM12.8 4.2c.1.1.2.1.3.1.2 0 .4-.1.5-.3l.6-1c.2-.3.1-.6-.2-.8-.1-.1-.3-.1-.4-.1-.1 0-.3.1-.3.3l-.6 1c-.1.1-.1.3-.1.4 0 .2.1.3.2.4zM9.5 3.3c.3 0 .6-.3.6-.6V1.6c0-.3-.3-.6-.6-.6s-.6.3-.6.6v1.2c0 .2.3.5.6.5zM2.8 10c0-.3-.3-.6-.6-.6H1.1c-.3 0-.6.3-.6.6s.3.6.6.6h1.2c.2 0 .5-.3.5-.6zM9.5 4.6c-3 0-5.4 2.4-5.4 5.4 0 3 2.4 5.4 5.4 5.4 3 0 5.4-2.4 5.4-5.4 0-3-2.4-5.4-5.4-5.4zm0 9.6c-2.3 0-4.2-1.9-4.2-4.2s1.9-4.2 4.2-4.2 4.2 1.9 4.2 4.2-1.9 4.2-4.2 4.2zM15.8 6.9c.1 0 .2 0 .3-.1l1-.6.3-.3c0-.1 0-.3-.1-.4-.2-.3-.5-.4-.8-.2l-1 .6c-.1.1-.2.2-.3.4 0 .1 0 .3.1.4.1.1.3.2.5.2zM6.2 15.8c-.1-.1-.3-.1-.4-.1-.1 0-.3.1-.4.3l-.6 1c-.2.3-.1.6.2.8.1.1.2.1.3.1.2 0 .4-.1.5-.3l.6-1c.1-.3 0-.6-.2-.8zM17.9 9.4h-1.2c-.3 0-.6.3-.6.6s.3.6.6.6h1.2c.3 0 .6-.3.6-.6s-.3-.6-.6-.6zM9.5 16.7c-.3 0-.6.3-.6.6v1.2c0 .3.3.6.6.6s.6-.3.6-.6v-1.2c0-.3-.3-.6-.6-.6zM13.6 16c-.1-.1-.2-.2-.4-.3-.1 0-.3 0-.4.1l-.3.3c0 .1 0 .3.1.4l.6 1c.1.2.3.3.5.3.1 0 .2 0 .3-.1.3-.2.4-.5.2-.8l-.6-.9z"/></symbol><symbol viewBox="0 0 18 18" id="tag" xmlns="http://www.w3.org/2000/svg"><circle transform="rotate(-45.001 13.726 4.243)" cx="13.7" cy="4.2" r="1"/><path d="M17 0h-6.5c-.6 0-1.3.3-1.7.7L.3 9.2c-.4.4-.4 1 0 1.4l7.1 7.1c.4.4 1 .4 1.4 0l8.5-8.5c.4-.4.7-1.2.7-1.7V1c0-.5-.5-1-1-1zm-1 7.5l-.1.3-7.8 7.8-5.7-5.7 7.8-7.8.3-.1H16v5.5z"/></symbol><symbol viewBox="0 0 15 15" id="tag-thin" xmlns="http://www.w3.org/2000/svg"><path d="M11 3.2c-.4 0-.8.1-1.1.4-.6.6-.6 1.5 0 2.1.3.3.7.5 1.1.5.4 0 .8-.1 1.1-.4.6-.6.6-1.5 0-2.1-.3-.4-.7-.5-1.1-.5zm.5 2c-.1.1-.3.2-.5.2s-.4-.1-.5-.2c-.3-.3-.3-.7 0-1 .1-.2.3-.2.5-.2s.4.1.5.2.2.3.2.5-.1.3-.2.5z"/><path d="M14.5 3.2l-2.1-2.1c-.3-.3-.7-.4-1.2-.4-.2 0-.3 0-.5.1l-2.6 1c-.5.1-1.2.6-1.6 1L1.1 8.2c-.4.4-.4 1 0 1.4l5 5c.2.2.5.3.7.3.3 0 .5-.1.7-.3l5.4-5.4c.4-.4.9-1.1 1.1-1.6L15 5c.1-.6-.1-1.4-.5-1.8zm-.3 1.4l-1 2.6c-.2.4-.6 1-.9 1.4L6.9 14l-.1.1s-.1 0-.1-.1l-5-5c0-.1-.1-.1-.1-.1s0-.1.1-.1l5.4-5.4c.3-.3.9-.8 1.3-.9l2.6-1h.2c.3 0 .5.1.6.2L14 3.8c.1.2.2.6.2.8z"/></symbol><symbol viewBox="0 0 17 15" id="talk" xmlns="http://www.w3.org/2000/svg"><path d="M4 4h9v1H4zM4 7h5v1H4z"/><path d="M16 0H1C.5 0 0 .4 0 1v10c0 .5.4 1 1 1h2v3l.3-.3.7-.7 2-2h10c.5 0 1-.4 1-1V1c0-.5-.4-1-1-1zm0 11H6c-.3 0-.5.1-.7.3L4 12.6V12c0-.6-.4-1-1-1H1V1h15v10z"/></symbol><symbol viewBox="0 0 19 18" id="thunderstorm" xmlns="http://www.w3.org/2000/svg"><path d="M3.8 11.8l.1 1.5h-.1c-2 0-3.6-1.6-3.6-3.6s1.6-3.6 3.6-3.6H4C4.5 2.8 7.3.3 10.7.3c3.7 0 6.8 3.1 6.8 6.9v.7c.9.5 1.5 1.4 1.5 2.6 0 1.6-1.3 2.9-2.9 2.9H16v-1.5h.1c.8 0 1.4-.6 1.4-1.4 0-.5-.3-1-.7-1.2l-.9-.5.1-1v-.5c0-3-2.4-5.4-5.3-5.4C8 1.8 5.8 3.7 5.4 6.3l-.2 1.4-1.3-.1h-.1c-1.2 0-2.1.9-2.1 2.1-.1 1.2.9 2.1 2.1 2.1zm3.7 4.9l2.8-3.4-4.9.1 4.8-5.7 1.1 1-2.7 3.1 4.9-.1-5 5.9-1-.9z"/></symbol><symbol viewBox="0 0 12 12" id="times" xmlns="http://www.w3.org/2000/svg"><path d="M12 1.4L10.6 0 6 4.6 1.4 0 0 1.4 4.6 6 0 10.6 1.4 12 6 7.4l4.6 4.6 1.4-1.4L7.4 6z"/></symbol><symbol viewBox="0 0 28 28" id="times-thin" xmlns="http://www.w3.org/2000/svg"><path d="M15.3 14L27 2.3 25.7 1 14 12.7 2.3 1 1 2.3 12.7 14 1 25.7 2.3 27 14 15.3 25.7 27l1.3-1.3L15.3 14z"/></symbol><symbol viewBox="0 0 20 16" id="toggle" xmlns="http://www.w3.org/2000/svg"><path class="efst0" d="M0 0h20v2H0zM0 7h20v2H0zM0 14h20v2H0z"/></symbol><symbol id="traffic" viewBox="0 0 11 21" xml:space="preserve" xmlns="http://www.w3.org/2000/svg"><style>.egst0{opacity:.4}</style><path d="M8.7 20.5H2.3c-1.3 0-2.3-1-2.3-2.3V2.8C0 1.5 1 .5 2.3.5h6.4c1.3 0 2.3 1 2.3 2.3v15.4c0 1.3-1 2.3-2.3 2.3zm-6.4-19c-.7 0-1.3.6-1.3 1.3v15.4c0 .7.6 1.3 1.3 1.3h6.4c.7 0 1.3-.6 1.3-1.3V2.8c0-.7-.6-1.3-1.3-1.3H2.3z"/><path class="egst0" d="M5.5 9c.8 0 1.5.7 1.5 1.5S6.3 12 5.5 12 4 11.3 4 10.5 4.7 9 5.5 9m0-1C4.1 8 3 9.1 3 10.5S4.1 13 5.5 13 8 11.9 8 10.5 6.9 8 5.5 8zM5.5 14.5c.8 0 1.5.7 1.5 1.5s-.7 1.5-1.5 1.5S4 16.8 4 16s.7-1.5 1.5-1.5m0-1C4.1 13.5 3 14.6 3 16s1.1 2.5 2.5 2.5S8 17.4 8 16s-1.1-2.5-2.5-2.5zM5.5 3.5C6.3 3.5 7 4.2 7 5s-.7 1.5-1.5 1.5S4 5.8 4 5s.7-1.5 1.5-1.5m0-1C4.1 2.5 3 3.6 3 5s1.1 2.5 2.5 2.5S8 6.4 8 5 6.9 2.5 5.5 2.5z"/></symbol><symbol viewBox="0 0 12 13" id="triangle-right" xmlns="http://www.w3.org/2000/svg"><path d="M0 6.5V0l5.6 3.3 5.6 3.2-5.6 3.3L0 13z"/></symbol><symbol viewBox="0 0 22 18" id="tune" xmlns="http://www.w3.org/2000/svg"><path d="M17.8 2.8C17.4 1.4 16 .3 14.5.3s-2.9 1.1-3.3 2.5H.5v2h10.7c.4 1.4 1.8 2.5 3.3 2.5s2.9-1.1 3.3-2.5h3.7v-2h-3.7zm-3.3 2.5c-.8 0-1.5-.7-1.5-1.5s.7-1.5 1.5-1.5 1.5.6 1.5 1.5-.7 1.5-1.5 1.5zM7.5 10.3c-1.6 0-2.9 1.1-3.3 2.5H.5v2h3.7c.4 1.4 1.8 2.5 3.3 2.5s2.9-1.1 3.3-2.5h10.7v-2H10.8c-.4-1.5-1.7-2.5-3.3-2.5zm0 5c-.8 0-1.5-.7-1.5-1.5s.7-1.5 1.5-1.5 1.5.6 1.5 1.5-.7 1.5-1.5 1.5z"/></symbol><symbol viewBox="0 0 17 13" id="twitter" xmlns="http://www.w3.org/2000/svg"><path d="M14.4 2.1c.7-.4 1.2-1.1 1.5-1.8-.6.4-1.4.7-2.1.8C13.2.5 12.3 0 11.4 0 9.6 0 8.2 1.5 8.2 3.3c0 .3 0 .5.1.8C5.6 3.9 3.2 2.5 1.6.6c-.3.5-.5 1.1-.5 1.6 0 1.2.6 2.2 1.5 2.8-.5 0-1.1-.2-1.5-.4 0 1.6 1.2 3 2.7 3.3h-.9c-.2 0-.4 0-.6-.1.4 1.3 1.7 2.3 3 2.3-1.1.9-2.6 1.4-4 1.4H.5c1.5.9 3.1 1.5 5 1.5 6 0 9.3-5 9.3-9.3v-.4c.7-.6 1.2-1.1 1.7-1.7-.8.2-1.4.4-2.1.5z"/></symbol><symbol viewBox="0 0 23 18" id="upload" xmlns="http://www.w3.org/2000/svg"><path d="M18.8 5.2C17.8 2.1 15 0 11.7 0 9.4 0 7.3 1 5.9 2.7 2.5 3.1 0 5.7 0 8.8 0 12.2 2.8 15 6.2 15v-2C3.9 13 2 11.1 2 8.8c0-2.2 1.9-4 4.5-4.1H7l.3-.4C8.3 2.8 9.9 2 11.7 2c2.6 0 4.8 1.8 5.3 4.3l.1.7.7.1c2 .2 3.1 1.2 3.1 2.9s-1.4 3-3 3h-2.2v2H18c2.8 0 5-2.2 5-5 0-2.5-1.6-4.3-4.2-4.8z"/><path d="M7.4 11.1l1.2 1.6 1.9-1.6V18h2v-6.8l1.9 1.6 1.2-1.6-4.2-3.5z"/></symbol><symbol viewBox="0 0 17 19" id="user" xmlns="http://www.w3.org/2000/svg"><path d="M11.9 10.3C13.2 9.2 14 7.7 14 6 14 3 11.5.5 8.5.5S3 3 3 6c0 1.7.8 3.2 2.1 4.3C2.3 11.6.5 14.4.5 17.6c0 .5.4 1 1 1 .5 0 1-.4 1-1 0-3.3 2.7-6 6-6s6 2.7 6 6c0 .5.4 1 1 1s1-.4 1-1c0-3.2-1.8-6-4.6-7.3zM12 6c0 1.9-1.6 3.5-3.5 3.5S5 7.9 5 6s1.6-3.5 3.5-3.5S12 4 12 6z"/></symbol><symbol viewBox="0 0 19 13" id="users" xmlns="http://www.w3.org/2000/svg"><path d="M16.2 4.3h-.1c.2-.4.3-.8.3-1.3 0-1.7-1.3-3-3-3s-3 1.3-3 3 1.3 3 3 3c.9 0 1.8-.4 2.3-1.1 0 .1.1.1.1.1 1.4.8 2.2 2.1 2.2 3.5 0 .2-.1.3-.2.4-.6.6-2.4 1-4.4 1h-.2c-.2 0-.4.2-.4.4s.2.4.4.4h.1c1.8 0 4-.3 5-1.3.3-.3.5-.6.5-1 0-1.6-1-3.2-2.6-4.1zm-2.8.9c-1.2 0-2.2-1-2.2-2.2s1-2.2 2.2-2.2c1.2 0 2.2 1 2.2 2.2s-1 2.2-2.2 2.2zM5.9 7c1.9 0 3.5-1.6 3.5-3.5S7.8 0 5.9 0 2.4 1.6 2.4 3.5 4 7 5.9 7zm0-6.2C7.4.8 8.6 2 8.6 3.5c0 1.5-1.2 2.7-2.7 2.7-1.5 0-2.7-1.2-2.7-2.7C3.2 2 4.4.8 5.9.8z"/><path d="M9.3 5.6c-.2-.1-.4 0-.6.1-.1.2 0 .5.2.6 1.3.9 2.1 2.4 2.1 3.9 0 1-2.2 1.8-5.1 1.8C3 12 .8 11.2.8 10.2c0-1.6.8-3 2.1-3.9.2-.1.2-.4.1-.6-.1-.1-.3-.2-.5-.1C.9 6.7 0 8.4 0 10.2c0 .6.3 1.4 2 2 1 .4 2.4.6 3.9.6 2.9 0 5.9-.8 5.9-2.6s-.9-3.5-2.5-4.6z"/></symbol><symbol viewBox="0 0 24 16" id="video" xmlns="http://www.w3.org/2000/svg"><defs><mask id="ena" x="0" y="0" width="24" height="16" maskUnits="userSpaceOnUse"><path d="M14.22 13H1.78C.95 13 0 12.23 0 11.56V1.44C0 .77.95 0 1.78 0h12.44C15.05 0 16 .77 16 1.44v10.12c0 .67-.95 1.44-1.78 1.44z" fill="#fff" transform="translate(1.5 1.5)"/><path d="M15 4.5l3.71-3.16a1.42 1.42 0 011.53-.21A1.39 1.39 0 0121 2.5v8a1.58 1.58 0 01-.73 1.5 1.34 1.34 0 01-.6.12 1.53 1.53 0 01-1-.36L15 9" fill="#fff" transform="translate(1.5 1.5)"/></mask></defs><g mask="url(#ena)" data-name="29_3"><path data-name="path-1" d="M15.72 14.5H3.28c-.83 0-1.78-.77-1.78-1.44V2.94c0-.67.95-1.44 1.78-1.44h12.44c.83 0 1.78.77 1.78 1.44v10.12c0 .67-.95 1.44-1.78 1.44z" fill="none" stroke="#000" stroke-width="2"/><g data-name="Shape"><path data-name="path-3" d="M16.5 6l3.71-3.16a1.42 1.42 0 011.53-.21A1.39 1.39 0 0122.5 4v8a1.58 1.58 0 01-.73 1.5 1.34 1.34 0 01-.6.12h0a1.53 1.53 0 01-1-.36L16.5 10.5" fill="none" stroke="#000" stroke-width="3"/></g></g></symbol><symbol viewBox="0 0 33 20" id="video-bold" xmlns="http://www.w3.org/2000/svg"><g stroke="#FFF" stroke-width="1.5" fill="none" fill-rule="evenodd"><path d="M21.88 19.25H2.735c-.892 0-1.985-.888-1.985-1.472V2.222C.75 1.638 1.843.75 2.735.75H21.88c.893 0 1.985.888 1.985 1.472v15.556c0 .584-1.092 1.472-1.985 1.472h0z"/><path d="M23.827 7.276l5.444-4.637c.397-.366 1.039-.455 1.548-.216.49.218.739.699.739 1.43V16.16c0 .74-.287 1.376-.693 1.567-.154.077-.35.114-.603.114-.338 0-.682-.128-1.009-.39l-5.426-3.979V7.276z"/></g></symbol><symbol viewBox="0 0 18 14" id="vimeo" xmlns="http://www.w3.org/2000/svg"><path d="M15.1.1c1.7 0 2.5 1 2.5 2.8v.4c-.1 1.6-1.2 3.7-3.5 6.4-2.3 2.8-4.3 4.2-5.9 4.2-1 0-1.8-.9-2.5-2.6L4.9 9l-.7-2.4c-.5-1.7-1.1-2.5-1.6-2.5-.2 0-.6.2-1.4.7l-.8-1 1.3-1.1 1.2-1C4 .8 4.9.3 5.4.3h.2c1.2 0 1.9.9 2.2 2.6.2 1 .3 1.8.4 2.4.1.6.2 1 .3 1.3C9 8.2 9.4 9 9.9 9c.4 0 .9-.5 1.6-1.6.7-1.1 1.1-1.9 1.1-2.4v-.3c0-.7-.4-1.1-1.2-1.1-.4 0-.8.1-1.3.2C11 1.4 12.6.1 14.9.1h.2z"/></symbol><symbol viewBox="0 0 20 11" id="vk" xmlns="http://www.w3.org/2000/svg"><path d="M19.4 9.9c0-.1 0-.1-.1-.1-.3-.6-1-1.3-1.9-2.2l-.8-.8c-.2-.3-.3-.5-.1-.8.1-.2.4-.6.9-1.3.3-.4.5-.6.7-.9 1.2-1.5 1.7-2.5 1.5-3l-.1-.1c0-.1-.1-.1-.3-.2-.2-.1-.4-.1-.6 0h-2.9-.4l-.1.1c0 .1-.1.1-.1.2-.3.8-.7 1.6-1.1 2.3-.2.4-.5.8-.7 1.1s-.4.5-.5.7c-.1.1-.3.3-.4.3-.1.1-.2.1-.3.1h-.2c-.1-.1-.2-.1-.2-.2-.1-.1-.1-.2-.1-.4v-.4-.5-.4-.8-.7-.6-.5c0-.1-.1-.2-.1-.3s-.1-.2-.2-.2c-.1-.1-.2-.1-.3-.1-.5-.1-.9-.2-1.5-.2-1.2 0-2 .1-2.4.2l-.3.3c-.2.2-.2.3-.1.3.4 0 .7.2.9.4l.1.1c0 .1.1.2.1.5 0 .2.1.5.1.7v1.3c0 .3-.1.6-.1.8s-.1.4-.1.5l-.2.2-.1.1c-.1 0-.2.1-.3.1-.1 0-.2 0-.3-.1-.1-.2-.2-.4-.4-.5-.1-.2-.3-.4-.5-.7s-.4-.6-.6-1l-.1-.4c-.1-.1-.2-.4-.4-.8-.2-.3-.3-.7-.5-1 0-.2-.1-.3-.2-.3H4S3.9.6 3.8.6 3.6.5 3.6.5H.9C.6.5.4.6.3.7V1c0 .1 0 .2.1.3.3.8.8 1.7 1.2 2.6.5.9.9 1.6 1.3 2.1.3.5.7 1 1.1 1.5.3.5.5.8.6 1 .2.1.3.2.3.3l.3.2c.1.2.4.4.7.6.3.2.7.4 1 .7.4.2.8.4 1.3.5s1 .2 1.5.2h1.2c.2 0 .4-.1.5-.2v-.1s.1-.1.1-.2v-.3c0-.3 0-.5.1-.8.1-.2.1-.4.2-.5.1-.1.1-.2.2-.3.1-.1.1-.1.2-.1h.1c.2-.1.3 0 .6.2l.6.6c.2.2.4.5.7.8s.5.5.7.6l.2.1c.1.1.3.2.5.2h3.1c.3 0 .5 0 .6-.1l.3-.3v-.3c-.1-.2-.1-.3-.2-.4z"/></symbol><symbol viewBox="0 0 19 13" id="youtube" xmlns="http://www.w3.org/2000/svg"><path d="M18.8 5c0-.4 0-.8-.1-1.4-.1-.6-.1-1.1-.2-1.5-.1-.5-.3-.9-.7-1.2-.4-.3-.8-.5-1.3-.6C15 .1 12.7 0 9.7 0S4.4.1 2.9.3c-.5 0-.9.2-1.3.6-.3.3-.6.7-.7 1.2-.1.4-.1.9-.2 1.5 0 .6-.1 1-.1 1.4v3c0 .4 0 .8.1 1.4.1.6.1 1.1.2 1.5.1.5.3.9.7 1.2.4.3.8.5 1.3.6 1.5.2 3.8.3 6.8.3s5.3-.1 6.8-.3c.5-.1.9-.3 1.3-.6s.6-.8.7-1.2c.1-.4.2-.9.2-1.5.1-.6.1-1 .1-1.4V6.5 5zm-5.5 2l-5.2 3.2c-.1.1-.2.1-.3.1-.1 0-.2 0-.3-.1-.3 0-.4-.2-.4-.5V3.3c0-.3.1-.4.3-.6.2-.1.4-.1.7 0L13.3 6c.2.1.3.3.3.5 0 .3-.1.4-.3.5z"/></symbol></svg>