<?xml version="1.0" encoding="utf-8"?>
<!-- Generator: Adobe Illustrator 20.1.0, SVG Export Plug-In . SVG Version: 6.00 Build 0)  -->
<svg version="1.1" id="Слой_1" xmlns="http://www.w3.org/2000/svg" xmlns:xlink="http://www.w3.org/1999/xlink" x="0px" y="0px"
	 viewBox="0 0 14 17" style="enable-background:new 0 0 14 17;" xml:space="preserve">
<path d="M4.9,0.6C2.2,0.6,0,2.9,0,5.8c0,2.5,2.6,6.7,4.4,7.5v2.8c0,0.2,0.2,0.4,0.4,0.4c0.2,0,0.4-0.2,0.4-0.4v-2.7
	C7,12.8,9.8,8.4,9.8,5.8C9.8,2.9,7.6,0.6,4.9,0.6z M4.9,12.6c-1.1,0-4.1-4.2-4.1-6.8c0-2.4,1.8-4.4,4.1-4.4c2.3,0,4.1,2,4.1,4.4
	C9,8.4,6,12.6,4.9,12.6z"/>
<path d="M11.1,2.9c-0.2-0.1-0.4,0-0.5,0.2c-0.1,0.2,0,0.4,0.2,0.5C12.1,4.2,13,5.5,13,7c0,2-2.1,5.2-3.1,5.5c0,0-0.1,0-0.1,0
	c-0.1,0-0.1,0-0.2,0c-0.1,0-0.2-0.1-0.5-0.3c-0.2-0.1-0.4-0.1-0.6,0.1c-0.1,0.2-0.1,0.4,0.1,0.6c0.3,0.2,0.5,0.3,0.7,0.4V15
	c0,0.2,0.2,0.4,0.4,0.4c0.2,0,0.4-0.2,0.4-0.4v-1.8c1.5-0.7,3.6-4.1,3.6-6.2C13.8,5.2,12.7,3.6,11.1,2.9z"/>
</svg>
