<?xml version="1.0" encoding="utf-8"?>
<!-- Generator: Adobe Illustrator 20.1.0, SVG Export Plug-In . SVG Version: 6.00 Build 0)  -->
<svg version="1.1" id="Слой_1" xmlns="http://www.w3.org/2000/svg" xmlns:xlink="http://www.w3.org/1999/xlink" x="0px" y="0px"
	 viewBox="0 0 21 20" style="enable-background:new 0 0 21 20;" xml:space="preserve">
<path d="M19.2,14.9h-2.1v-7c-0.1-4.1-3.3-7.4-7.3-7.4c-4,0-7.2,3.3-7.3,7.3c0,0,0,0,0,7.1H0.8c-0.4,0-0.8,0.3-0.8,0.7
	c0,0.4,0.3,0.7,0.8,0.7h5.7c0.2,1.7,1.6,3.1,3.5,3.1s3.3-1.4,3.5-3.1h5.9c0.4,0,0.8-0.3,0.8-0.7C20,15.3,19.7,14.9,19.2,14.9z
	 M4.1,7.9C4.1,4.6,6.7,2,9.9,2s5.7,2.7,5.8,5.9v7H4.1C4.1,14.4,4.1,8,4.1,7.9z M9.9,18c-1,0-1.8-0.7-1.9-1.6h3.9
	C11.7,17.3,10.9,18,9.9,18z"/>
</svg>
