<?xml version="1.0" encoding="utf-8"?>
<!-- Generator: Adobe Illustrator 20.0.0, SVG Export Plug-In . SVG Version: 6.00 Build 0)  -->
<svg version="1.1" id="Слой_1" xmlns="http://www.w3.org/2000/svg" xmlns:xlink="http://www.w3.org/1999/xlink" x="0px" y="0px"
	 viewBox="0 0 13 13" style="enable-background:new 0 0 13 13;" xml:space="preserve">
<path id="bold" d="M1.5,1v0.5h1C2.8,1.5,3,1.7,3,2V11c0,0.3-0.2,0.5-0.5,0.5H1.7V12h6c1.7,0,3.1-1.4,3.1-3.1c0-1.3-0.8-2.4-1.9-2.9
	c0.7-0.5,1.2-1.3,1.2-2.3C10.1,2.2,8.9,1,7.3,1L1.5,1L1.5,1z M4.9,1.5h0.9c1.2,0,2.1,1,2.1,2.1s-1,2.1-2.1,2.1H4.9V1.5z M4.9,6.3
	h1.4c1.4,0,2.6,1.2,2.6,2.6s-1.2,2.6-2.6,2.6H4.9V6.3z"/>
</svg>
