<?xml version="1.0" encoding="UTF-8"?>
<svg width="44px" height="28px" viewBox="0 0 44 28" version="1.1" xmlns="http://www.w3.org/2000/svg" xmlns:xlink="http://www.w3.org/1999/xlink">
    <!-- Generator: Sketch 42 (36781) - http://www.bohemiancoding.com/sketch -->
    <title>shape</title>
    <desc>Created with Sketch.</desc>
    <defs></defs>
    <g id="Page-1" stroke="none" stroke-width="1" fill="none" fill-rule="evenodd">
        <g id="shape" fill-rule="nonzero" fill="#93C252">
            <g id="UI">
                <g id="29_3">
                    <path d="M38.105268,13.71374 C38.105268,9.13601 34.384937,5.42505 29.795646,5.42505 C29.019181,5.42505 28.268715,5.53377 27.556247,5.73226 C26.208309,2.3739 22.917958,0 19.069133,0 C14.181855,0 10.190037,3.82716 9.941048,8.64078 C9.863052,8.63829 9.785055,8.6343 9.707059,8.6343 C4.345802,8.6343 0,12.96915 0,18.3169 C0,23.63971 4.305804,27.95811 9.632562,27.99751 C9.711059,27.9995 19.894737,28 19.894737,28 L19.894737,19.15789 L16.210526,19.15789 L22.105263,13.26316 L27.71624,19.23853 L24.315789,19.15789 L24.315789,28 L37.264306,27.9995 C37.280805,28 37.417299,27.9995 37.417299,27.9995 C41.065633,27.91771 44,24.94934 44,21.29325 C44.0005,17.85259 41.400618,15.01988 38.05327,14.63537 C38.086769,14.33314 38.105268,14.02543 38.105268,13.71374 Z" id="Shape"></path>
                </g>
            </g>
        </g>
    </g>
</svg>