<?xml version="1.0" encoding="utf-8"?>
<!-- Generator: Adobe Illustrator 20.1.0, SVG Export Plug-In . SVG Version: 6.00 Build 0)  -->
<svg version="1.1" id="Слой_1" xmlns="http://www.w3.org/2000/svg" xmlns:xlink="http://www.w3.org/1999/xlink" x="0px" y="0px"
	 viewBox="0 0 18 18" style="enable-background:new 0 0 18 18;" xml:space="preserve">
<path d="M16,2h-1.6V1c0-0.6-0.4-1-1-1s-1,0.4-1,1v1H9.1V1c0-0.6-0.4-1-1-1s-1,0.4-1,1v1H4.6V1c0-0.6-0.4-1-1-1s-1,0.4-1,1v1H2
	C0.9,2,0,2.9,0,4v12c0,1.1,0.9,2,2,2h14c1.1,0,2-0.9,2-2V4C18,2.9,17.1,2,16,2z M16,16H2L2,4h0h14V16z"/>
<path d="M7.7,13.2c0.2,0.2,0.4,0.3,0.7,0.3c0.3,0,0.5-0.1,0.7-0.3l4.3-4.5c0.4-0.4,0.4-1,0-1.4s-1-0.4-1.4,0L8.3,11L6.5,9.4
	C6.1,9,5.5,9.1,5.1,9.5c-0.4,0.4-0.3,1,0.1,1.4L7.7,13.2z"/>
</svg>
