<?xml version="1.0" encoding="utf-8"?>
<!-- Generator: Adobe Illustrator 20.1.0, SVG Export Plug-In . SVG Version: 6.00 Build 0)  -->
<svg version="1.1" id="Слой_1" xmlns="http://www.w3.org/2000/svg" xmlns:xlink="http://www.w3.org/1999/xlink" x="0px" y="0px"
	 viewBox="0 0 16 16" style="enable-background:new 0 0 16 16;" xml:space="preserve">
<path d="M10.8,11.3c-1.1,0-2,0.9-2,2s0.9,2,2,2c1.1,0,2-0.9,2-2S11.9,11.3,10.8,11.3z M10.8,14.6c-0.7,0-1.2-0.6-1.2-1.2
	c0-0.7,0.5-1.2,1.2-1.2c0.7,0,1.2,0.6,1.2,1.2C12,14,11.5,14.6,10.8,14.6z"/>
<path d="M5,11.3c-1.1,0-2,0.9-2,2s0.9,2,2,2c1.1,0,2-0.9,2-2S6.1,11.3,5,11.3z M5,14.6c-0.7,0-1.2-0.6-1.2-1.2
	c0-0.7,0.5-1.2,1.2-1.2c0.7,0,1.2,0.6,1.2,1.2C6.2,14,5.7,14.6,5,14.6z"/>
<path d="M15.3,5.1c-0.3-2.9-3.4-5-6.2-5H7.8v5H0.5v1.7c0,2.2,1.7,4.1,3.9,4.1h7.1c2.1,0,3.9-1.8,3.9-4.1V5.9V5.5L15.3,5.1L15.3,5.1z
	 M8.6,0.9h0.5c2.4,0,5.1,1.8,5.4,4.2H8.6V0.9z M14.5,6.8c0,1.8-1.4,3.3-3.1,3.3H4.4c-1.7,0-3.1-1.5-3.1-3.3V5.9h6.5h6.7V6.8z"/>
</svg>
