<?xml version="1.0" encoding="utf-8"?>
<!-- Generator: Adobe Illustrator 20.1.0, SVG Export Plug-In . SVG Version: 6.00 Build 0)  -->
<svg version="1.1" id="Слой_1" xmlns="http://www.w3.org/2000/svg" xmlns:xlink="http://www.w3.org/1999/xlink" x="0px" y="0px"
	 viewBox="0 0 18 15" style="enable-background:new 0 0 18 15;" xml:space="preserve">
<path id="Business" d="M6,2V1c0-0.6,0.4-1,1-1h4c0.5,0,1,0.4,1,1v1h5c0.5,0,1,0.4,1,1v7c0,0.6-0.4,1-1,1h0v3c0,0.6-0.4,1-1,1H2
	c-0.6,0-1-0.4-1-1v-3h0c-0.5,0-1-0.4-1-1V3c0-0.6,0.4-1,1-1H6z M2,14c0,0,14,0,14,0c0,0,0-3,0-3c0,0-14,0-14,0C2,11,2,14,2,14z
	 M17,10V3H1v7H17z M11,2V1c0,0-4,0-4,0v1C7,2,11,2,11,2z"/>
</svg>
