<?xml version="1.0" encoding="utf-8"?>
<!-- Generator: Adobe Illustrator 20.1.0, SVG Export Plug-In . SVG Version: 6.00 Build 0)  -->
<svg version="1.1" id="Слой_1" xmlns="http://www.w3.org/2000/svg" xmlns:xlink="http://www.w3.org/1999/xlink" x="0px" y="0px"
	 viewBox="0 0 35 32" style="enable-background:new 0 0 35 32;" xml:space="preserve">
<path d="M34.9,15.9c0-0.8-0.4-1.4-1.1-1.8l-2.6-1.3l2.6-1.3c0,0,0,0,0,0c0.7-0.3,1.1-1,1.1-1.8
	c0-0.8-0.4-1.4-1.1-1.8L19.1,0.4c-1.1-0.5-2.3-0.5-3.4,0L1.1,7.9C0.4,8.3,0,8.9,0,9.7c0,0.8,0.4,1.4,1.1,1.8l2.6,1.3l-2.6,1.3
	c-0.7,0.3-1.1,1-1.1,1.8s0.4,1.4,1.1,1.8L3.7,19l-2.6,1.3c-0.7,0.3-1.1,1-1.1,1.8c0,0.8,0.4,1.4,1.1,1.8l14.7,7.5
	c0.5,0.3,1.1,0.4,1.7,0.4s1.2-0.1,1.7-0.4l14.7-7.5c0.7-0.3,1.1-1,1.1-1.8c0-0.8-0.4-1.4-1.1-1.8L31.2,19l2.6-1.3
	C34.5,17.3,34.9,16.6,34.9,15.9z M1.8,10C1.6,9.9,1.6,9.8,1.6,9.7s0-0.2,0.2-0.3l14.7-7.5c0.3-0.2,0.7-0.2,1-0.2
	c0.3,0,0.7,0.1,1,0.2l14.7,7.5c0.2,0.1,0.2,0.2,0.2,0.3s0,0.2-0.2,0.3l-14.7,7.5c-0.6,0.3-1.4,0.3-2,0L1.8,10z M33.1,21.8
	c0.2,0.1,0.2,0.2,0.2,0.3c0,0.1,0,0.2-0.2,0.3l-14.7,7.5c-0.6,0.3-1.4,0.3-2,0L1.8,22.4c-0.2-0.1-0.2-0.2-0.2-0.3
	c0-0.1,0-0.2,0.2-0.3l3.7-1.9l10.3,5.3c0.5,0.3,1.1,0.4,1.7,0.4c0.6,0,1.2-0.1,1.7-0.4l10.3-5.3L33.1,21.8z M33.1,16.2l-14.7,7.5
	c-0.6,0.3-1.4,0.3-2,0L1.8,16.2c-0.2-0.1-0.2-0.2-0.2-0.3c0-0.1,0-0.2,0.2-0.3l3.7-1.9L15.7,19c0.5,0.3,1.1,0.4,1.7,0.4
	s1.2-0.1,1.7-0.4l10.3-5.3l3.7,1.9c0.2,0.1,0.2,0.2,0.2,0.3C33.3,16,33.2,16.1,33.1,16.2z"/>
</svg>