<?xml version="1.0" encoding="UTF-8"?>
<svg width="40px" height="35px" viewBox="0 0 40 35" version="1.1" xmlns="http://www.w3.org/2000/svg" xmlns:xlink="http://www.w3.org/1999/xlink">
    <!-- Generator: Sketch 42 (36781) - http://www.bohemiancoding.com/sketch -->
    <title>chat</title>
    <desc>Created with Sketch.</desc>
    <defs></defs>
    <g id="icons" stroke="none" stroke-width="1" fill="none" fill-rule="evenodd" opacity="0.200000003">
        <path d="M36.5333333,20.9434424 C35.6348028,20.5843254 35,19.7058673 35,18.679143 C35,17.3329489 36.0913059,16.241643 37.4375,16.241643 C38.7836941,16.241643 39.875,17.3329489 39.875,18.679143 C39.875,19.6312159 39.3291522,20.4557992 38.5333333,20.8570162 L38.5333333,25.1749763 C38.5333333,26.4239097 37.502,27.441643 36.2666667,27.441643 L13.6,27.441643 L8.8,32.241643 L8.8,29.4132159 L12.7715729,25.441643 L36.2666667,25.441643 C36.4039692,25.441643 36.5333333,25.3128123 36.5333333,25.1749763 L36.5333333,20.9434424 Z M37.5333333,8.30072502 L36.5333333,8.30072502 L36.5333333,2.50830965 C36.5333333,2.37109176 36.4045958,2.24164299 36.2666667,2.24164299 L2.26666667,2.24164299 C2.12936411,2.24164299 2,2.37047364 2,2.50830965 L2,25.1749763 C2,25.3121942 2.12873752,25.441643 2.26666667,25.441643 L8.8,25.441643 L8.8,29.4132159 L6.8,31.4132159 L6.8,27.441643 L2.26666667,27.441643 C1.01546667,27.441643 3.55271368e-15,26.408043 3.55271368e-15,25.1749763 L3.55271368e-15,2.50830965 C3.55271368e-15,1.25937632 1.03133333,0.241642988 2.26666667,0.241642988 L36.2666667,0.241642988 C37.5178667,0.241642988 38.5333333,1.27524299 38.5333333,2.50830965 L38.5333333,8.30072502 L37.5333333,8.30072502 L36.5333333,8.30072502 L36.5333333,2.50830965 C36.5333333,2.37109176 36.4045958,2.24164299 36.2666667,2.24164299 L2.26666667,2.24164299 C2.12936411,2.24164299 2,2.37047364 2,2.50830965 L2,25.1749763 C2,25.3121942 2.12873752,25.441643 2.26666667,25.441643 L8.8,25.441643 L8.8,32.2352905 L6.8,34.2352905 L6.8,27.441643 L2.26666667,27.441643 C1.01546667,27.441643 3.55271368e-15,26.408043 3.55271368e-15,25.1749763 L3.55271368e-15,2.50830965 C3.55271368e-15,1.25937632 1.03133333,0.241642988 2.26666667,0.241642988 L36.2666667,0.241642988 C37.5178667,0.241642988 38.5333333,1.27524299 38.5333333,2.50830965 L38.5333333,8.30072502 L37.5333333,8.30072502 Z" id="chat" fill="#000000" fill-rule="nonzero"></path>
    </g>
</svg>