<?xml version="1.0" encoding="utf-8"?>
<!-- Generator: Adobe Illustrator 20.1.0, SVG Export Plug-In . SVG Version: 6.00 Build 0)  -->
<svg version="1.1" id="Слой_1" xmlns="http://www.w3.org/2000/svg" xmlns:xlink="http://www.w3.org/1999/xlink" x="0px" y="0px"
	 viewBox="0 0 17 17" style="enable-background:new 0 0 17 17;" xml:space="preserve">
<path d="M8.5,16.5c-4.4,0-8-3.6-8-8s3.6-8,8-8s8,3.6,8,8S12.9,16.5,8.5,16.5z M8.5,1.5c-3.9,0-7,3.1-7,7
	c0,3.9,3.1,7,7,7c3.9,0,7-3.1,7-7C15.5,4.6,12.4,1.5,8.5,1.5z"/>
<polygon points="10.1,11.4 8,9.2 8,5.5 9,5.5 9,8.8 10.9,10.6 "/>
</svg>
