<?xml version="1.0" encoding="utf-8"?>
<!-- Generator: Adobe Illustrator 20.1.0, SVG Export Plug-In . SVG Version: 6.00 Build 0)  -->
<svg version="1.1" id="Слой_1" xmlns="http://www.w3.org/2000/svg" xmlns:xlink="http://www.w3.org/1999/xlink" x="0px" y="0px"
	 viewBox="0 0 22 14" style="enable-background:new 0 0 22 14;" xml:space="preserve">
<path d="M0.5,6.7C0.6,3.3,3.7,0.4,7,0.5c1.6-0.1,3.1,0.6,4.4,1.6c-0.5,0.6-1.1,1.2-1.7,1.7c-1.5-1-3.6-1.3-5.1-0.1
	c-2.1,1.5-2.2,4.9-0.2,6.5c2,1.8,5.7,0.9,6.3-1.9c-1.2,0-2.5,0-3.7,0c0-0.7,0-1.5,0-2.2c2.1,0,4.2,0,6.2,0c0.1,1.7-0.1,3.6-1.2,5
	c-1.6,2.3-4.9,2.9-7.4,2C2.1,12.1,0.3,9.4,0.5,6.7z M17.8,4.5h1.9c0,0.6,0,1.2,0,1.9c0.6,0,1.2,0,1.9,0v1.9c-0.6,0-1.2,0-1.9,0
	c0,0.6,0,1.2,0,1.9h-1.9c0-0.6,0-1.2,0-1.9c-0.6,0-1.2,0-1.9,0V6.3c0.6,0,1.2,0,1.9,0C17.8,5.7,17.8,5.1,17.8,4.5z"/>
</svg>
