<?xml version="1.0" encoding="utf-8"?>
<!-- Generator: Adobe Illustrator 20.1.0, SVG Export Plug-In . SVG Version: 6.00 Build 0)  -->
<svg version="1.1" id="Слой_1" xmlns="http://www.w3.org/2000/svg" xmlns:xlink="http://www.w3.org/1999/xlink" x="0px" y="0px"
	 viewBox="0 0 14 13" style="enable-background:new 0 0 14 13;" xml:space="preserve">
<path id="Health" d="M12.6,8c0,0.1-0.1,0.2-0.2,0.2h-3H8.6V9v3c0,0.1-0.1,0.2-0.2,0.2h-3c-0.1,0-0.2-0.1-0.2-0.2V9V8.2
	H4.4h-3C1.3,8.2,1.2,8.1,1.2,8V5c0-0.1,0.1-0.2,0.2-0.2h3h0.8V4V1c0-0.1,0.1-0.2,0.2-0.2h3c0.1,0,0.2,0.1,0.2,0.2v3v0.8h0.8h3
	c0.1,0,0.2,0.1,0.2,0.2V8z M12.4,4h-3V1c0-0.6-0.4-1-1-1h-3c-0.6,0-1,0.4-1,1v3h-3c-0.6,0-1,0.4-1,1v3c0,0.6,0.4,1,1,1h3v3
	c0,0.6,0.4,1,1,1h3c0.6,0,1-0.4,1-1V9h3c0.6,0,1-0.4,1-1V5C13.4,4.4,13,4,12.4,4L12.4,4z"/>
</svg>
