<?xml version="1.0" encoding="utf-8"?>
<!-- Generator: Adobe Illustrator 20.1.0, SVG Export Plug-In . SVG Version: 6.00 Build 0)  -->
<svg version="1.1" id="Слой_1" xmlns="http://www.w3.org/2000/svg" xmlns:xlink="http://www.w3.org/1999/xlink" x="0px" y="0px"
	 viewBox="0 0 22 19" style="enable-background:new 0 0 22 19;" xml:space="preserve">
<path d="M11,18.8c-0.4,0-0.7-0.1-1-0.4l-0.1-0.1l-7.5-7.5C0,8.4,0,4.4,2.4,2c1.2-1.2,2.7-1.8,4.4-1.8c1.6,0,3.1,0.6,4.2,1.6
	c2.4-2.2,6.2-2.2,8.6,0.2l0,0c2.4,2.4,2.4,6.4,0,8.8L12,18.4C11.7,18.7,11.4,18.8,11,18.8z M6.8,1.7c-1.3,0-2.4,0.5-3.3,1.4
	c-1.8,1.8-1.8,4.8,0,6.7l7.5,7.5l7.6-7.5c1.8-1.8,1.8-4.8,0-6.7c-1.8-1.8-4.8-1.8-6.7,0L11,3.9l-0.9-0.9C9.2,2.2,8.1,1.7,6.8,1.7z"
	/>
</svg>