<?xml version="1.0" encoding="utf-8"?>
<!-- Generator: Adobe Illustrator 20.1.0, SVG Export Plug-In . SVG Version: 6.00 Build 0)  -->
<svg version="1.1" id="Слой_1" xmlns="http://www.w3.org/2000/svg" xmlns:xlink="http://www.w3.org/1999/xlink" x="0px" y="0px"
	 viewBox="0 0 10 16" style="enable-background:new 0 0 10 16;" xml:space="preserve">
<path id="Hotels" d="M1.2,14.8v-4.1c0.1,0,0.1,0.1,0.2,0.1h4c0.2,0,0.4-0.2,0.4-0.4c0-0.2-0.2-0.4-0.4-0.4h-4
	c-0.1,0-0.1,0-0.2,0.1V8.7c0.1,0,0.1,0.1,0.2,0.1h4c0.2,0,0.4-0.2,0.4-0.4C5.8,8.2,5.6,8,5.4,8h-4C1.3,8,1.3,8,1.2,8.1V5.7
	c0.1,0,0.1,0.1,0.2,0.1h4.3C7,8.1,7.9,11.4,8,15H1.1C1.2,14.9,1.2,14.9,1.2,14.8 M5.1,5H1.4C1.3,5,1.3,5,1.2,5.1V2.4
	C2.7,2.5,4,3.5,5.1,5 M9.4,15H8.8c-0.1-3.6-0.9-6.8-2.2-9.2h0.9c0.2,0,0.4-0.2,0.4-0.4C7.8,5.2,7.6,5,7.4,5H6.1
	c-1.3-2-3-3.2-4.9-3.4V1c0-0.2-0.2-0.4-0.4-0.4C0.6,0.6,0.4,0.8,0.4,1v13.8c0,0.1,0,0.1,0.1,0.2H0.4C0.2,15,0,15.2,0,15.4
	c0,0.2,0.2,0.4,0.4,0.4h7.7c0.1,0.1,0.2,0.1,0.3,0.1c0.1,0,0.2,0,0.3-0.1h0.7c0.2,0,0.4-0.2,0.4-0.4C9.8,15.2,9.6,15,9.4,15"/>
</svg>
