<?xml version="1.0" encoding="utf-8"?>
<!-- Generator: Adobe Illustrator 20.1.0, SVG Export Plug-In . SVG Version: 6.00 Build 0)  -->
<svg version="1.1" id="Слой_1" xmlns="http://www.w3.org/2000/svg" xmlns:xlink="http://www.w3.org/1999/xlink" x="0px" y="0px"
	 viewBox="0 0 18 18" style="enable-background:new 0 0 18 18;" xml:space="preserve">
<path d="M15.9,18H2.1C1,18,0,17,0,15.9V6.8c0-1,0.6-2,1.4-2.5l6.1-3.8c0.8-0.5,2.1-0.5,2.9,0l6.1,3.8C17.4,4.8,18,5.8,18,6.8v9.1
	C18,17,17,18,15.9,18z M9,2.1c-0.1,0-0.3,0-0.3,0.1L2.5,6C2.3,6.1,2.1,6.6,2.1,6.8v9.1h13.8V6.8c0-0.2-0.2-0.6-0.4-0.7L9.3,2.2
	C9.3,2.1,9.1,2.1,9,2.1z"/>
</svg>
