<?xml version="1.0" encoding="utf-8"?>
<!-- Generator: Adobe Illustrator 20.1.0, SVG Export Plug-In . SVG Version: 6.00 Build 0)  -->
<svg version="1.1" xmlns="http://www.w3.org/2000/svg" xmlns:xlink="http://www.w3.org/1999/xlink" x="0px" y="0px"
	 viewBox="0 0 17 17" style="enable-background:new 0 0 17 17;" xml:space="preserve">
<path d="M2,5.5L2,5.5v6C2,13.4,3.6,15,5.5,15h6c1.9,0,3.5-1.6,3.5-3.5v-6C15,3.6,13.4,2,11.5,2h-6C3.6,2,2,3.6,2,5.5L2,5.5z
	 M0.5,5.5c0-2.8,2.2-5,5-5h6c2.8,0,5,2.2,5,5v6c0,2.8-2.2,5-5,5h-6c-2.8,0-5-2.2-5-5V5.5z"/>
<path d="M8.5,11L8.5,11C9.9,11,11,9.9,11,8.5S9.9,6,8.5,6S6,7.1,6,8.5S7.1,11,8.5,11L8.5,11z M8.5,12.5L8.5,12.5c-2.2,0-4-1.8-4-4
	s1.8-4,4-4s4,1.8,4,4S10.7,12.5,8.5,12.5L8.5,12.5z"/>
<path d="M13.5,4.5c0,0.6-0.4,1-1,1s-1-0.4-1-1s0.4-1,1-1S13.5,3.9,13.5,4.5z"/>
</svg>