<?xml version="1.0" encoding="UTF-8"?>
<svg width="18px" height="17px" viewBox="0 0 18 17" version="1.1" xmlns="http://www.w3.org/2000/svg" xmlns:xlink="http://www.w3.org/1999/xlink">
<path d="M15,14.991 C15,14.997 14.997,15 14.993,15 L3.007,15 C3,15 3,15.001 3,14.991 L3,13 L15,13 L15,14.991 Z M7,5 L11,5 L16,5 C16,5 15.997,11 15.999,11 L10.305,11 L2,11 C2,10.999 2.003,5 2.001,5 L7,5 Z M8,3 L10,3 L10,2 L8,2 L8,3 Z M15.999,3 L12,3 L12,1 C12,0.448 11.552,0 11,0 L7,0 C6.448,0 6,0.448 6,1 L6,3 L2.001,3 C0.898,3 0,3.899 0,4.997 L0,11.003 C0,11.742 0.404,12.378 1,12.724 L1,14.991 C1,16.107 1.896,17 3.007,17 L14.993,17 C16.103,17 17,16.1 17,14.991 L17,12.722 C17.595,12.374 18,11.737 18,11.003 L18,4.997 C18,3.893 17.106,3 15.999,3 L15.999,3 Z"></path>
</svg>
