<?xml version="1.0" encoding="utf-8"?>
<!-- Generator: Adobe Illustrator 20.1.0, SVG Export Plug-In . SVG Version: 6.00 Build 0)  -->
<svg version="1.1" id="Слой_1" xmlns="http://www.w3.org/2000/svg" xmlns:xlink="http://www.w3.org/1999/xlink" x="0px" y="0px"
	 viewBox="0 0 47 52" style="enable-background:new 0 0 47 52;" xml:space="preserve">
<polygon points="33.4,18.7 33.4,33.2 46.3,25.9 "/>
<polygon points="20.5,22.6 30.4,17 20.5,11.4 "/>
<polygon points="9,30.7 17.5,25.9 9,21.1 "/>
<polygon points="9,46.9 17.5,42.1 9,37.4 "/>
<polygon points="9,14.6 17.5,9.8 9,5 "/>
<polygon points="0,7.3 6.5,3.6 0,0 "/>
<polygon points="0,20.7 6.5,17 0,13.4 "/>
<polygon points="0,38.6 6.5,34.9 0,31.3 "/>
<polygon points="0,52 6.5,48.4 0,44.7 "/>
<polygon points="20.5,40.5 30.4,34.9 20.5,29.3 "/>
</svg>
