<?xml version="1.0" encoding="utf-8"?>
<!-- Generator: Adobe Illustrator 20.1.0, SVG Export Plug-In . SVG Version: 6.00 Build 0)  -->
<svg version="1.1" id="Слой_1" xmlns="http://www.w3.org/2000/svg" xmlns:xlink="http://www.w3.org/1999/xlink" x="0px" y="0px"
	 viewBox="0 0 50 40" style="enable-background:new 0 0 50 40;" xml:space="preserve">
<path d="M28.3,7.5L29,3c0.1-0.8,0-1.5-0.5-2c-0.5-0.7-1.6-1-2.9-1c-2.9,0-4.2,1.6-4.5,3.1l-0.7,4.5
	c-0.1,0.6-0.1,1.3,0.5,2c0.5,0.7,1.6,1,2.9,1C26.8,10.6,28.1,9,28.3,7.5z M22.5,7.3l0.6-4.1c0.1-0.7,0.6-1.6,2.2-1.6
	c0.7,0,1.2,0.2,1.4,0.6C27,2.5,27.1,2.8,27,3.3l-0.5,4c-0.1,0.7-0.6,1.6-2.2,1.6c-0.7,0-1.2-0.2-1.5-0.5C22.5,8.1,22.4,7.8,22.5,7.3
	z"/>
<path d="M34,10.6c1.3,0,2.4-0.4,3-1c0.8-0.7,1.1-1.5,1.2-2.1l1.2-7.3h-1.9l-1.1,7.2C36.2,8.5,35.5,9,34.3,9
	c-0.7,0-1.1-0.2-1.4-0.5c-0.2-0.3-0.3-0.7-0.2-1.2l1.1-7.1h-1.9l-1.2,7.4c-0.1,0.5-0.1,1.4,0.5,2C31.7,10.3,32.7,10.6,34,10.6z"/>
<path d="M43,7.1h1.8l1.3,3.3h2.3L47,6.8l0.3-0.1c1-0.4,1.6-1.2,1.8-2.5l0.2-1.3c0.2-0.9,0.1-1.6-0.3-2
	c-0.4-0.6-1.2-0.8-2.5-0.8h-4.3l-1.6,10.3h1.9L43,7.1z M43.7,1.8h2.1c0.6,0,1,0.1,1.2,0.4c0.2,0.2,0.3,0.5,0.2,1l-0.1,0.9
	c-0.1,1-0.6,1.4-1.7,1.4h-2.2L43.7,1.8z"/>
<path d="M4.3,15c-0.5,0.4-0.8,1-1,2.1c-0.3,2.2,0,2.6,2.3,3.1c1.7,0.4,2,0.6,1.8,1.8c-0.2,1.1-0.6,1.4-1.9,1.4
	c-1,0-1.9-0.2-2.9-0.5l-0.5,1.4c0.8,0.4,1.9,0.6,3,0.6c1.5,0,2.5-0.3,3.2-0.7c0.5-0.4,0.8-1.1,1-2.2c0.1-0.9,0.2-1.6-0.1-2
	s-0.9-0.7-2.3-1c-0.8-0.3-1.3-0.4-1.5-0.6c-0.3-0.3-0.3-0.7-0.2-1.2C5.3,16.3,5.7,16,6.9,16c1,0,1.8,0.1,2.8,0.3l0.4-1.6
	c-1.2-0.2-2.2-0.3-2.9-0.3C5.8,14.4,4.9,14.6,4.3,15z"/>
<path d="M13.6,21.4h2.1c2.4,0,3.6-0.8,3.9-2.8l0.2-1.4c0.2-0.9,0.1-1.6-0.3-2c-0.4-0.6-1.2-0.8-2.5-0.8h-4.2l-1.6,10.3
	h1.9L13.6,21.4z M14.3,16.2h2.1c0.6,0,1,0.1,1.2,0.4c0.2,0.2,0.3,0.5,0.2,1l-0.1,0.9c-0.1,0.8-0.5,1.4-1.7,1.4h-2.1L14.3,16.2z"/>
<path d="M26.1,14.3c-2.9,0-4.2,1.6-4.4,3.1L21,21.9c-0.1,0.6-0.1,1.3,0.5,2c0.5,0.7,1.6,1,2.9,1c2.9,0,4.2-1.6,4.4-3.1
	l0.7-4.5c0.1-0.8-0.1-1.5-0.5-2C28.5,14.6,27.4,14.3,26.1,14.3z M27.6,17.6L27,21.7c-0.1,0.7-0.6,1.6-2.2,1.6
	c-0.7,0-1.2-0.2-1.5-0.5s-0.4-0.6-0.3-1.1l0.6-4.1c0.1-0.7,0.6-1.6,2.2-1.6c0.7,0,1.2,0.1,1.5,0.5C27.6,16.8,27.7,17.1,27.6,17.6z"
	/>
<path d="M39.4,18.5l0.2-1.3c0.2-0.9,0.1-1.6-0.3-2c-0.4-0.6-1.2-0.8-2.5-0.8h-4.3l-1.6,10.3h1.9l0.5-3.3h1.8l1.3,3.3
	h2.4l-1.4-3.6l0.2-0.1C38.6,20.6,39.2,19.8,39.4,18.5z M37.5,17.5l-0.1,0.9c-0.1,1-0.6,1.4-1.7,1.4h-2.2l0.5-3.7h2.1
	c0.6,0,1,0.1,1.2,0.4C37.5,16.7,37.6,17,37.5,17.5z"/>
<polygon points="43,24.7 44.9,24.7 46.3,16.1 49.2,16.1 49.4,14.5 41.7,14.5 41.5,16.1 44.4,16.1 "/>
<path d="M5.6,28.7L0.8,39h2l1-2.1h4L8,39h2L8.5,28.7H5.6z M4.4,35.4l2.4-5.7l0.7,5.7H4.4z"/>
<path d="M14.6,32c0.2-1.2,0.8-1.7,2-1.7c0.7,0,2,0.1,2.9,0.2l0.5-1.6c-0.7-0.1-1.8-0.3-3.1-0.3c-2.4,0-3.9,1.1-4.2,3.1
	L12,36.2c-0.2,0.8,0,1.6,0.4,2.1c0.5,0.6,1.4,0.9,2.7,0.9c1.2,0,2.4-0.2,3.8-0.4l0.7-4.6h-1.8l-0.5,3.3h-0.2c-0.7,0.1-1,0.1-1.5,0.1
	c-0.6,0-1-0.2-1.3-0.5c-0.3-0.3-0.4-0.8-0.3-1.4L14.6,32z"/>
<polygon points="21.3,39 27.6,39 27.8,37.4 23.5,37.4 24,34.6 28,34.6 28.2,32.9 24.2,32.9 24.6,30.4 28.9,30.4 
	29.2,28.8 22.9,28.8 "/>
<polygon points="37.1,36.1 36.6,36.1 34.3,28.8 31.7,28.8 30.1,39 31.9,39 33,32.1 33.4,32 35.8,39 38.4,39 40,28.8 
	38.2,28.8 "/>
<polygon points="41.9,28.8 41.7,30.4 44.5,30.4 43.2,39 45.1,39 46.5,30.4 49.4,30.4 49.6,28.8 "/>
<polygon points="15.3,5.6 14,0.1 12,0.1 14.1,7.5 13.6,10.4 15.5,10.4 16,7.5 20.3,0.1 18.4,0.1 "/>
</svg>
