<?xml version="1.0" encoding="utf-8"?>
<!-- Generator: Adobe Illustrator 20.1.0, SVG Export Plug-In . SVG Version: 6.00 Build 0)  -->
<svg version="1.1" id="Слой_1" xmlns="http://www.w3.org/2000/svg" xmlns:xlink="http://www.w3.org/1999/xlink" x="0px" y="0px"
	 viewBox="0 0 12 14" style="enable-background:new 0 0 12 14;" xml:space="preserve">
<path d="M6,14L1.8,9.4c-2-2.2-2-5.4,0-7.6l0,0c2.1-2.3,5.7-2.5,8-0.4c2.3,2.1,2.5,5.7,0.4,8L6,14z M6,1C5.9,1,5.9,1,5.8,1
	C4.6,1.1,3.4,1.6,2.6,2.5C0.9,4.3,0.9,7,2.6,8.8L6,12.5l3.4-3.7c1.7-1.9,1.6-4.8-0.3-6.6C8.3,1.4,7.2,1,6,1z"/>
</svg>