<?xml version="1.0" encoding="utf-8"?>
<!-- Generator: Adobe Illustrator 20.1.0, SVG Export Plug-In . SVG Version: 6.00 Build 0)  -->
<svg version="1.1" id="Слой_1" xmlns="http://www.w3.org/2000/svg" xmlns:xlink="http://www.w3.org/1999/xlink" x="0px" y="0px"
	 viewBox="0 0 18 18" style="enable-background:new 0 0 18 18;" xml:space="preserve">
<path id="Add-post" d="M7,12.6l-2.1-2.1c0,0,8.5-8.5,8.5-8.5c0,0,2.1,2.1,2.1,2.1L7,12.6z M2.3,15.2L3,12.4l0.5-0.5L4.5,13L5.6,14
	l-0.5,0.5L2.3,15.2z M16.9,2.7l-2.1-2.1c-0.8-0.8-2.1-0.8-2.8,0L2.8,9.8l-1.4,1.4c-0.1,0.1-0.2,0.3-0.3,0.5L0,16.3
	c-0.2,0.7,0.5,1.4,1.2,1.2l4.6-1.1c0.2,0,0.3-0.1,0.5-0.3l1.4-1.4l9.2-9.2C17.7,4.8,17.7,3.5,16.9,2.7L16.9,2.7z"/>
</svg>
