<?xml version="1.0" encoding="utf-8"?>
<!-- Generator: Adobe Illustrator 20.1.0, SVG Export Plug-In . SVG Version: 6.00 Build 0)  -->
<svg version="1.1" id="Слой_1" xmlns="http://www.w3.org/2000/svg" xmlns:xlink="http://www.w3.org/1999/xlink" x="0px" y="0px"
	 viewBox="0 0 16 16" style="enable-background:new 0 0 16 16;" xml:space="preserve">
<path d="M14.9,2.1l-1-1c-0.8-0.8-2.2-0.8-3,0L2,10.1c-0.1,0.1-0.1,0.1-0.1,0.2l-1.3,4.6
	c0,0.2,0,0.3,0.1,0.5c0.1,0.1,0.2,0.1,0.3,0.1c0,0,0.1,0,0.1,0l4.6-1.3c0.1,0,0.1-0.1,0.2-0.1l8.9-8.9c0.4-0.4,0.6-0.9,0.6-1.5
	C15.5,3,15.3,2.5,14.9,2.1z M5.4,13.3l-3.7,1.1l1.1-3.7l7.2-7.2l2.7,2.7L5.4,13.3z M14.2,4.4l-1,1l-2.7-2.7l1-1
	c0.5-0.5,1.2-0.5,1.7,0l1,1c0.2,0.2,0.3,0.5,0.3,0.8C14.6,3.9,14.4,4.2,14.2,4.4z"/>
</svg>