<?xml version="1.0" encoding="utf-8"?>
<!-- Generator: Adobe Illustrator 20.1.0, SVG Export Plug-In . SVG Version: 6.00 Build 0)  -->
<svg version="1.1" xmlns="http://www.w3.org/2000/svg" xmlns:xlink="http://www.w3.org/1999/xlink" x="0px" y="0px"
	 viewBox="0 0 16 16" style="enable-background:new 0 0 16 16;" xml:space="preserve">
<path d="M11.5,15.5c-0.8,0-3.6-0.3-7.2-3.8C0.8,8.4,0.5,4.8,0.5,4.4C0.5,3.9,0.6,2,3,0.7c0.3-0.2,1.1-0.4,1.5,0
	c0.1,0.1,1.9,3.2,2,3.2c0.1,0.2,0.1,0.3,0.1,0.5c0,0.3-0.1,0.5-0.4,0.8C6,5.5,5.7,5.7,5.5,5.9C5.3,6,5.1,6.2,4.9,6.3
	C4.8,6.4,4.8,6.5,4.8,6.5l0,0c0,0,0.1,1,2,2.7c1.9,1.7,2.8,2.1,2.8,2.1c0,0,0,0,0,0c0,0,0.1,0,0.1-0.1c0.1-0.1,0.2-0.3,0.4-0.5
	c0.3-0.4,0.5-0.6,0.6-0.7c0.5-0.5,0.9-0.5,1.3-0.3c0,0,3,1.7,3.2,1.9c0.4,0.4,0.1,1.3,0,1.5h0C14.5,15,12.5,15.5,11.5,15.5
	C11.6,15.5,11.6,15.5,11.5,15.5z M3.8,1.5c-0.1,0-0.3,0-0.4,0.1c-1.9,1-2,2.3-2,2.8C1.5,4.7,1.8,8,5,11c3.6,3.4,6.1,3.5,6.6,3.5
	c0,0,2,0,2.8-1.9c0.1-0.1,0.1-0.3,0.1-0.4c-0.4-0.3-2.7-1.6-2.8-1.7c0,0-0.1,0-0.2,0.1c-0.1,0.1-0.3,0.4-0.5,0.6
	c-0.2,0.3-0.4,0.5-0.5,0.6c-0.2,0.3-0.6,0.6-1.2,0.4C9,12.1,8,11.5,6.1,9.9C4,8,3.8,6.8,3.8,6.5c0-0.4,0.2-0.7,0.4-0.8
	c0.2-0.2,0.4-0.4,0.7-0.6c0.2-0.1,0.4-0.3,0.6-0.5c0.1-0.1,0.2-0.2,0.2-0.2C5.5,4.2,4.2,2.1,3.8,1.5z"/>
</svg>