<?xml version="1.0" encoding="utf-8"?>
<!-- Generator: Adobe Illustrator 20.1.0, SVG Export Plug-In . SVG Version: 6.00 Build 0)  -->
<svg version="1.1" id="Слой_1" xmlns="http://www.w3.org/2000/svg" xmlns:xlink="http://www.w3.org/1999/xlink" x="0px" y="0px"
	 viewBox="0 0 15 14" style="enable-background:new 0 0 15 14;" xml:space="preserve">
<path id="Entertainment" d="M7.4,0c3.9,0,7,3.1,7,7s-3.1,7-7,7s-7-3.1-7-7S3.5,0,7.4,0z M7.4,13.2
	c3.4,0,6.2-2.8,6.2-6.2s-2.8-6.2-6.2-6.2C4,0.8,1.2,3.6,1.2,7S4,13.2,7.4,13.2z M9.7,5.8c0.9,0.6,0.9,1.5,0,2L7.1,9.3
	C6.8,9.5,6.6,9.6,6.3,9.6c-0.6,0-0.9-0.4-0.9-1.2V5.2C5.4,4.4,5.8,4,6.3,4c0.2,0,0.5,0.1,0.8,0.2L9.7,5.8z M9.3,7.1
	C9.5,7,9.6,6.8,9.6,6.8c0-0.1-0.1-0.2-0.3-0.3L6.7,4.9C6.5,4.8,6.4,4.8,6.3,4.8c-0.1,0-0.1,0.4-0.1,0.4v3.1c0,0,0,0.4,0.1,0.4
	c0,0,0.2,0,0.4-0.1L9.3,7.1z"/>
</svg>
