<?xml version="1.0" encoding="UTF-8"?>
<svg width="18px" height="18px" viewBox="0 0 18 18" version="1.1" xmlns="http://www.w3.org/2000/svg" xmlns:xlink="http://www.w3.org/1999/xlink">
<path d="M7.01133299,12.6061322 L4.88933299,10.4841322 C4.89033299,10.4841322 13.374333,1.99913224 13.375333,1.99913224 C13.375333,1.99913224 15.495333,4.12213224 15.491333,4.12613224 L7.01133299,12.6061322 Z M2.33533299,15.1611322 L2.97133299,12.4031322 L3.47533299,11.8991322 L4.53633299,12.9601322 L5.59633299,14.0201322 L5.09333299,14.5241322 L2.33533299,15.1611322 Z M16.910333,2.70713224 L14.789333,0.585132239 C14.005333,-0.198867761 12.739333,-0.192867761 11.956333,0.590132239 L2.76833299,9.77713224 L1.35433299,11.1921322 C1.22133299,11.3241322 1.12933299,11.4911322 1.08733299,11.6741322 L0.0263329945,16.2701322 C-0.139667006,16.9901322 0.505332994,17.6361322 1.22533299,17.4691322 L5.82233299,16.4091322 C6.00433299,16.3671322 6.17133299,16.2741322 6.30433299,16.1421322 L7.71833299,14.7271322 L16.906333,5.54013224 C17.689333,4.75713224 17.693333,3.48913224 16.910333,2.70713224 L16.910333,2.70713224 Z"></path>
</svg>
