<?xml version="1.0" encoding="utf-8"?>
<!-- Generator: Adobe Illustrator 20.1.0, SVG Export Plug-In . SVG Version: 6.00 Build 0)  -->
<svg version="1.1" xmlns="http://www.w3.org/2000/svg" xmlns:xlink="http://www.w3.org/1999/xlink" x="0px" y="0px"
	 viewBox="0 0 19 19" style="enable-background:new 0 0 19 19;" xml:space="preserve">
<path d="M15.8,4h-0.5V2.9c0-1.5-1.3-2.8-2.8-2.8H6.5C5,0.1,3.7,1.4,3.7,2.9V4H3.2C1.7,4,0.4,5.2,0.4,6.7v4.5
	c0,1.5,1.3,2.8,2.8,2.8h0.4v3.5c0,0.8,0.6,1.4,1.4,1.4h8.8c0.8,0,1.4-0.6,1.4-1.4V14h0.5c1.6,0,2.8-1.2,2.8-2.8V6.7
	C18.6,5.2,17.3,4,15.8,4z M4.8,2.9c0-0.9,0.8-1.7,1.8-1.7h5.9c1,0,1.8,0.8,1.8,1.7V4H4.8V2.9L4.8,2.9z M14.2,17.5
	c0,0.2-0.2,0.3-0.3,0.3H5.1c-0.2,0-0.3-0.2-0.3-0.3v-5.8h9.4V17.5z M17.5,11.2c0,0.9-0.8,1.7-1.8,1.7h-0.5v-1.2H16
	c0.3,0,0.5-0.2,0.5-0.5c0-0.3-0.2-0.5-0.5-0.5H2.9c-0.3,0-0.5,0.2-0.5,0.5c0,0.3,0.2,0.5,0.5,0.5h0.8v1.2H3.2c-1,0-1.8-0.8-1.8-1.7
	V6.7C1.5,5.8,2.3,5,3.2,5h12.5c1,0,1.8,0.8,1.8,1.7V11.2L17.5,11.2z"/>
</svg>
