<?xml version="1.0" encoding="utf-8"?>
<!-- Generator: Adobe Illustrator 20.0.0, SVG Export Plug-In . SVG Version: 6.00 Build 0)  -->
<svg version="1.1" id="Слой_1" xmlns="http://www.w3.org/2000/svg" xmlns:xlink="http://www.w3.org/1999/xlink" x="0px" y="0px"
	 viewBox="0 0 13 13" style="enable-background:new 0 0 13 13;" xml:space="preserve">
<path id="quote" d="M1.1,11l1.7-5.1l-2-0.3C0.4,5.3,0,4.7,0,3.8C0,2.1,1.2,1,2.7,1c1.5,0,2.8,1.1,2.8,2.7c0,1.4-0.6,2.5-1.4,3.7
	l-2.6,4L1.1,11z M8.4,11l1.7-5.1L8,5.6C7.6,5.3,7.2,4.7,7.2,3.8C7.2,2.1,8.5,1,10,1c1.5,0,2.7,1.1,2.7,2.7c0,1.4-0.6,2.5-1.4,3.7
	l-2.5,4L8.4,11z"/>
</svg>
