<?xml version="1.0" encoding="UTF-8"?>
<svg width="18px" height="18px" viewBox="0 0 18 18" version="1.1" xmlns="http://www.w3.org/2000/svg" xmlns:xlink="http://www.w3.org/1999/xlink">
<path d="M15.9685019,7.479 C15.9685019,7.504 15.8615019,7.765 15.8425019,7.783 L8.06950191,15.556 L2.41250191,9.9 L10.1855019,2.126 C10.2015019,2.11 10.4675019,2 10.4895019,2 L15.9685019,2 L15.9685019,7.479 Z M16.9615019,0 C17.5175019,0 17.9685019,0.457 17.9685019,1.007 L17.9685019,7.479 C17.9685019,8.035 17.6505019,8.803 17.2565019,9.197 L8.78150191,17.673 C8.38750191,18.066 7.74650191,18.062 7.36050191,17.676 L0.292501913,10.608 C-0.0984980867,10.217 -0.0974980867,9.582 0.295501913,9.187 L8.77150191,0.712 C9.16450191,0.319 9.93950191,0 10.4895019,0 L16.9615019,0 Z M14.4329019,4.9497 C14.8239019,4.5587 14.8239019,3.9267 14.4329019,3.5357 C14.0429019,3.1447 13.4099019,3.1447 13.0189019,3.5357 C12.6279019,3.9267 12.6279019,4.5587 13.0189019,4.9497 C13.4099019,5.3407 14.0429019,5.3407 14.4329019,4.9497 Z" id="Add-sale"></path>
</svg>
