<?xml version="1.0" encoding="utf-8"?>
<!-- Generator: Adobe Illustrator 20.1.0, SVG Export Plug-In . SVG Version: 6.00 Build 0)  -->
<svg version="1.1" xmlns="http://www.w3.org/2000/svg" xmlns:xlink="http://www.w3.org/1999/xlink" x="0px" y="0px"
	 viewBox="0 0 18 17" style="enable-background:new 0 0 18 17;" xml:space="preserve">
<path d="M16.7,14.5l-3.3-3.3c0.8-1.1,1.2-2.5,1.2-3.9c0-3.7-3-6.8-6.8-6.8C4,0.5,1,3.5,1,7.3s3,6.8,6.8,6.8c1.4,0,2.8-0.4,3.9-1.2
	l3.3,3.3c0.2,0.2,0.5,0.3,0.8,0.3c0.3,0,0.6-0.1,0.8-0.3c0.2-0.2,0.3-0.5,0.3-0.8C17,15,16.9,14.7,16.7,14.5z M12.7,7.3
	c0,2.7-2.2,4.9-4.9,4.9c-2.7,0-4.9-2.2-4.9-4.9c0-2.7,2.2-4.9,4.9-4.9C10.5,2.4,12.7,4.6,12.7,7.3z"/>
</svg>