<?xml version="1.0" encoding="utf-8"?>
<!-- Generator: Adobe Illustrator 20.0.0, SVG Export Plug-In . SVG Version: 6.00 Build 0)  -->
<svg version="1.1" id="Слой_1" xmlns="http://www.w3.org/2000/svg" xmlns:xlink="http://www.w3.org/1999/xlink" x="0px" y="0px"
	 viewBox="0 0 86 86" style="enable-background:new 0 0 86 86;" xml:space="preserve">
<style type="text/css">
	.st0{fill:#FFFFFF;}
	.st1{fill:#C91B1B;stroke:#000000;stroke-miterlimit:10;}
</style>
<path class="st0" d="M43.5,86C19.5,86,0,66.9,0,43.5C0,19.1,19.1,0,43.5,0C66.9,0,86,19.5,86,43.5c0,8.3-2.5,16.4-7.2,23.5l-1.7-1.1
	c4.5-6.7,6.8-14.4,6.8-22.3C84,20.6,65.8,2,43.5,2C20.2,2,2,20.2,2,43.5C2,65.8,20.6,84,43.5,84c7.2,0,14.1-1.9,20.4-5.7l1,1.7
	C58.4,83.9,51,86,43.5,86z"/>
<polygon class="st0" points="36.7,54.5 26.3,44.1 27.7,42.7 36.7,51.7 57.9,30.5 59.3,31.9 "/>
<path id="Oval" class="st0" d="M65,81c1.7,0,3-1.3,3-3s-1.3-3-3-3s-3,1.3-3,3S63.3,81,65,81z"/>
<rect x="528" y="-77" class="st1" width="10" height="2"/>
</svg>
