<?xml version="1.0" encoding="utf-8"?>
<!-- Generator: Adobe Illustrator 20.1.0, SVG Export Plug-In . SVG Version: 6.00 Build 0)  -->
<svg version="1.1" xmlns="http://www.w3.org/2000/svg" xmlns:xlink="http://www.w3.org/1999/xlink" x="0px" y="0px"
	 viewBox="0 0 19 20" style="enable-background:new 0 0 19 20;" xml:space="preserve">
<path d="M15.4,12.8c-1.2,0-2.2,0.5-2.9,1.4L7,11.2c0.1-0.4,0.2-0.8,0.2-1.2c0-0.4-0.1-0.8-0.2-1.2l5.5-3.1
	c0.7,0.9,1.7,1.4,2.9,1.4c2,0,3.6-1.6,3.6-3.6c0-2-1.6-3.6-3.6-3.6s-3.6,1.6-3.6,3.6c0,0.4,0.1,0.8,0.2,1.2L6.5,7.8
	C5.8,7,4.8,6.4,3.6,6.4C1.6,6.4,0,8,0,10s1.6,3.6,3.6,3.6c1.2,0,2.2-0.6,2.9-1.4l5.5,3.1c-0.1,0.4-0.2,0.8-0.2,1.2
	c0,2,1.6,3.6,3.6,3.6s3.6-1.6,3.6-3.6S17.4,12.8,15.4,12.8z M15.4,1.1c1.4,0,2.5,1.1,2.5,2.5c0,1.4-1.1,2.5-2.5,2.5
	c-1.4,0-2.5-1.1-2.5-2.5C12.9,2.2,14,1.1,15.4,1.1z M3.6,12.5c-1.4,0-2.5-1.1-2.5-2.5c0-1.4,1.1-2.5,2.5-2.5S6.1,8.6,6.1,10
	C6.1,11.3,5,12.5,3.6,12.5z M15.4,18.9c-1.4,0-2.5-1.1-2.5-2.5c0-1.4,1.1-2.5,2.5-2.5c1.4,0,2.5,1.1,2.5,2.5
	C17.9,17.8,16.8,18.9,15.4,18.9z"/>
</svg>