<?xml version="1.0" encoding="utf-8"?>
<!-- Generator: Adobe Illustrator 20.1.0, SVG Export Plug-In . SVG Version: 6.00 Build 0)  -->
<svg version="1.1" id="Слой_1" xmlns="http://www.w3.org/2000/svg" xmlns:xlink="http://www.w3.org/1999/xlink" x="0px" y="0px"
	 viewBox="0 0 11 17" style="enable-background:new 0 0 11 17;" xml:space="preserve">
<title>Hotels</title>
<desc>Created with Sketch.</desc>
<path d="M10.6,16.1H9.8C9.8,14.7,10,7.3,8.6,0.5c0-0.2-0.2-0.3-0.4-0.3C6.6,0,4.2,0,2.5,0.1c-0.2,0-0.3,0.2-0.4,0.3
	C0.8,8.9,0.9,14.8,1,16.1H0.4c-0.2,0-0.4,0.2-0.4,0.4S0.2,17,0.4,17h10.2c0.2,0,0.4-0.2,0.4-0.4S10.8,16.1,10.6,16.1z M7.2,0.9
	c-0.1,4.3-1.1,7-1.9,7s-1.8-2.7-1.9-7C4.7,0.8,6.1,0.8,7.2,0.9z M2.8,1.9c0.2,3.6,1.1,6.8,2.6,6.8c1.6,0,2.5-3.4,2.6-7
	C9.2,8.2,9,14.8,9,16.1H4.1c0.1-0.1,0.1-0.2,0.1-0.3v-3.4C4.2,12.2,4,12,3.8,12c-0.2,0-0.4,0.2-0.4,0.4v3.4c0,0.1,0,0.2,0.1,0.3H1.8
	C1.8,15,1.6,9.7,2.8,1.9z"/>
</svg>
