<?xml version="1.0" encoding="utf-8"?>
<!-- Generator: Adobe Illustrator 20.1.0, SVG Export Plug-In . SVG Version: 6.00 Build 0)  -->
<svg version="1.1" id="Слой_1" xmlns="http://www.w3.org/2000/svg" xmlns:xlink="http://www.w3.org/1999/xlink" x="0px" y="0px"
	 viewBox="0 0 19 18" style="enable-background:new 0 0 19 18;" xml:space="preserve">
<path d="M10.4,2L10.4,2L10.4,2 M9.5,3.9l1.3,2.6l0.5,0.9l1,0.2L15.2,8l-2.1,2l-0.8,0.7l0.2,1l0.5,2.8
	l-2.6-1.3l-0.9-0.5l-0.9,0.5L6,14.6l0.5-2.8l0.2-1L5.9,10L3.8,8l2.9-0.4l1-0.2l0.5-0.9L9.5,3.9 M9.5,0.4c-0.3,0-0.6,0.2-0.9,0.7
	L6.4,5.6L1.5,6.3C0.4,6.5,0.2,7.2,1,8l3.6,3.5l-0.8,4.9c-0.1,0.8,0.2,1.3,0.7,1.3c0.2,0,0.4-0.1,0.7-0.2l4.4-2.3l4.4,2.3
	c0.3,0.1,0.5,0.2,0.7,0.2c0.5,0,0.8-0.5,0.7-1.3l-0.8-4.9L18,8c0.8-0.8,0.5-1.5-0.5-1.7l-4.9-0.7l-2.2-4.4C10.1,0.7,9.8,0.4,9.5,0.4
	L9.5,0.4z"/>
</svg>
