<?xml version="1.0" encoding="utf-8"?>
<!-- Generator: Adobe Illustrator 20.1.0, SVG Export Plug-In . SVG Version: 6.00 Build 0)  -->
<svg version="1.1" id="Слой_1" xmlns="http://www.w3.org/2000/svg" xmlns:xlink="http://www.w3.org/1999/xlink" x="0px" y="0px"
	 viewBox="0 0 15 15" style="enable-background:new 0 0 15 15;" xml:space="preserve">
<path d="M11,3.2c-0.4,0-0.8,0.1-1.1,0.4c-0.6,0.6-0.6,1.5,0,2.1C10.2,6,10.6,6.2,11,6.2c0.4,0,0.8-0.1,1.1-0.4
	c0.6-0.6,0.6-1.5,0-2.1C11.8,3.3,11.4,3.2,11,3.2z M11.5,5.2c-0.1,0.1-0.3,0.2-0.5,0.2s-0.4-0.1-0.5-0.2c-0.3-0.3-0.3-0.7,0-1
	C10.6,4,10.8,4,11,4s0.4,0.1,0.5,0.2s0.2,0.3,0.2,0.5S11.6,5,11.5,5.2z"/>
<path d="M14.5,3.2l-2.1-2.1c-0.3-0.3-0.7-0.4-1.2-0.4c-0.2,0-0.3,0-0.5,0.1l-2.6,1C7.6,1.9,6.9,2.4,6.5,2.8L1.1,8.2
	c-0.4,0.4-0.4,1,0,1.4l5,5c0.2,0.2,0.5,0.3,0.7,0.3c0.3,0,0.5-0.1,0.7-0.3l5.4-5.4c0.4-0.4,0.9-1.1,1.1-1.6l1-2.6
	C15.1,4.4,14.9,3.6,14.5,3.2z M14.2,4.6l-1,2.6c-0.2,0.4-0.6,1-0.9,1.4L6.9,14c0,0-0.1,0.1-0.1,0.1c0,0-0.1,0-0.1-0.1l-5-5
	c0-0.1-0.1-0.1-0.1-0.1c0,0,0-0.1,0.1-0.1l5.4-5.4C7.4,3.1,8,2.6,8.4,2.5l2.6-1c0.1,0,0.1,0,0.2,0c0.3,0,0.5,0.1,0.6,0.2L14,3.8
	C14.1,4,14.2,4.4,14.2,4.6z"/>
</svg>
