<?xml version="1.0" encoding="utf-8"?>
<!-- Generator: Adobe Illustrator 20.1.0, SVG Export Plug-In . SVG Version: 6.00 Build 0)  -->
<svg version="1.1" id="Слой_1" xmlns="http://www.w3.org/2000/svg" xmlns:xlink="http://www.w3.org/1999/xlink" x="0px" y="0px"
	 viewBox="0 0 17 15" style="enable-background:new 0 0 17 15;" xml:space="preserve">
<rect x="4" y="4" width="9" height="1"/>
<rect x="4" y="7" width="5" height="1"/>
<path d="M16,0H1C0.5,0,0,0.4,0,1v10c0,0.5,0.4,1,1,1h2v1.6v1V15l0.3-0.3L4,14l2-2h10c0.5,0,1-0.4,1-1V1C17,0.5,16.6,0,16,0z M16,11
	H6c-0.3,0-0.5,0.1-0.7,0.3L4,12.6V12c0-0.6-0.4-1-1-1H1V1h15V11z"/>
</svg>
