<?xml version="1.0" encoding="utf-8"?>
<!-- Generator: Adobe Illustrator 20.1.0, SVG Export Plug-In . SVG Version: 6.00 Build 0)  -->
<svg version="1.1" id="Слой_1" xmlns="http://www.w3.org/2000/svg" xmlns:xlink="http://www.w3.org/1999/xlink" x="0px" y="0px"
	 viewBox="0 0 23 18" style="enable-background:new 0 0 23 18;" xml:space="preserve">
<path d="M18.8,5.2C17.8,2.1,15,0,11.7,0C9.4,0,7.3,1,5.9,2.7C2.5,3.1,0,5.7,0,8.8C0,12.2,2.8,15,6.2,15v-2
	C3.9,13,2,11.1,2,8.8c0-2.2,1.9-4,4.5-4.1l0.5,0l0.3-0.4C8.3,2.8,9.9,2,11.7,2c2.6,0,4.8,1.8,5.3,4.3L17.1,7l0.7,0.1
	c2,0.2,3.1,1.2,3.1,2.9c0,1.7-1.4,3-3,3h-2.2v2H18c2.8,0,5-2.2,5-5C23,7.5,21.4,5.7,18.8,5.2z"/>
<polygon points="7.4,11.1 8.6,12.7 10.5,11.1 10.5,18 12.5,18 12.5,11.2 14.4,12.8 15.6,11.2 11.4,7.7 "/>
</svg>
