<?xml version="1.0" encoding="utf-8"?>
<!-- Generator: Adobe Illustrator 20.1.0, SVG Export Plug-In . SVG Version: 6.00 Build 0)  -->
<svg version="1.1" id="Слой_1" xmlns="http://www.w3.org/2000/svg" xmlns:xlink="http://www.w3.org/1999/xlink" x="0px" y="0px"
	 viewBox="0 0 17 19" style="enable-background:new 0 0 17 19;" xml:space="preserve">
<path d="M11.9,10.3C13.2,9.2,14,7.7,14,6c0-3-2.5-5.5-5.5-5.5C5.5,0.5,3,3,3,6c0,1.7,0.8,3.2,2.1,4.3c-2.8,1.3-4.6,4.1-4.6,7.3
	c0,0.5,0.4,1,1,1c0.5,0,1-0.4,1-1c0-3.3,2.7-6,6-6s6,2.7,6,6c0,0.5,0.4,1,1,1s1-0.4,1-1C16.5,14.4,14.7,11.6,11.9,10.3z M12,6
	c0,1.9-1.6,3.5-3.5,3.5C6.6,9.5,5,7.9,5,6s1.6-3.5,3.5-3.5C10.4,2.5,12,4,12,6z"/>
</svg>