<?xml version="1.0" encoding="UTF-8" standalone="no"?>
<svg width="33px" height="20px" viewBox="0 0 33 20" version="1.1" xmlns="http://www.w3.org/2000/svg" xmlns:xlink="http://www.w3.org/1999/xlink">
    <!-- Generator: Sketch 43.1 (39012) - http://www.bohemiancoding.com/sketch -->
    <title>Group 2</title>
    <desc>Created with Sketch.</desc>
    <defs></defs>
    <g id="UI" stroke="none" stroke-width="1" fill="none" fill-rule="evenodd">
        <g id="29" transform="translate(-943.000000, -685.000000)" stroke="#FFFFFF" stroke-width="1.5">
            <g id="Bitmap-Copy-2" transform="translate(888.000000, 624.000000)">
                <g id="Group-2" transform="translate(55.000000, 61.000000)">
                    <path d="M21.8803419,19.25 L2.73504274,19.25 C1.84252781,19.25 0.75,18.3617981 0.75,17.7777778 L0.75,2.22222222 C0.75,1.63820195 1.84252781,0.75 2.73504274,0.75 L21.8803419,0.75 C22.7728568,0.75 23.8653846,1.63820195 23.8653846,2.22222222 L23.8653846,17.7777778 C23.8653846,18.3617981 22.7728568,19.25 21.8803419,19.25 L21.8803419,19.25 Z" id="Shape"></path>
                    <path d="M23.8269231,7.2755178 L29.2709322,2.63857203 C29.6681461,2.27272582 30.3100227,2.18357629 30.8191138,2.42314857 C31.3098502,2.64144544 31.5576923,3.12195563 31.5576923,3.85222686 L31.5576923,16.1599192 C31.5576923,16.8999195 31.2710869,17.5364852 30.8652676,17.727459 C30.7112555,17.8042275 30.5143664,17.8406884 30.2615385,17.8406884 C29.9236219,17.8406884 29.5803454,17.7129576 29.2531367,17.4511906 L23.8269231,13.4721621 L23.8269231,7.2755178 Z" id="Shape"></path>
                </g>
            </g>
        </g>
    </g>
</svg>