<svg id="Слой_1" data-name="Слой 1" xmlns="http://www.w3.org/2000/svg" xmlns:xlink="http://www.w3.org/1999/xlink" viewBox="0 0 24 16"><defs><mask id="mask" x="0" y="0" width="24" height="16" maskUnits="userSpaceOnUse"><g transform="translate(1.5 1.5)"><g id="mask-2"><path id="path-1" d="M14.22,13H1.78C.95,13,0,12.23,0,11.56V1.44C0,.77.95,0,1.78,0H14.22C15.05,0,16,.77,16,1.44V11.56C16,12.23,15.05,13,14.22,13Z" style="fill:#fff"/></g><g id="mask-4"><path id="path-3" d="M15,4.5l3.71-3.16a1.42,1.42,0,0,1,1.53-.21A1.39,1.39,0,0,1,21,2.5v8A1.58,1.58,0,0,1,20.27,12a1.34,1.34,0,0,1-.6.12h0a1.53,1.53,0,0,1-1-.36L15,9" style="fill:#fff"/></g></g></mask></defs><title>video</title><g id="UI"><g id="_29_3" data-name="29_3"><g id="Group-3"><g style="mask:url(#mask)"><g id="Group-2"><g id="Shape"><path id="path-1-2" data-name="path-1" d="M14.22,13H1.78C.95,13,0,12.23,0,11.56V1.44C0,.77.95,0,1.78,0H14.22C15.05,0,16,.77,16,1.44V11.56C16,12.23,15.05,13,14.22,13Z" transform="translate(1.5 1.5)" style="fill:none;stroke:#000;stroke-width:2px"/></g><g id="Shape-2" data-name="Shape"><path id="path-3-2" data-name="path-3" d="M15,4.5l3.71-3.16a1.42,1.42,0,0,1,1.53-.21A1.39,1.39,0,0,1,21,2.5v8A1.58,1.58,0,0,1,20.27,12a1.34,1.34,0,0,1-.6.12h0a1.53,1.53,0,0,1-1-.36L15,9" transform="translate(1.5 1.5)" style="fill:none;stroke:#000;stroke-width:3px"/></g></g></g></g></g></g></svg>
