<?xml version="1.0" encoding="utf-8"?>
<!-- Generator: Adobe Illustrator 20.1.0, SVG Export Plug-In . SVG Version: 6.00 Build 0)  -->
<svg version="1.1" id="Слой_1" xmlns="http://www.w3.org/2000/svg" xmlns:xlink="http://www.w3.org/1999/xlink" x="0px" y="0px"
	 viewBox="0 0 18 14" style="enable-background:new 0 0 18 14;" xml:space="preserve">
<path d="M15.1,0.1c1.7,0,2.5,1,2.5,2.8c0,0.1,0,0.2,0,0.4c-0.1,1.6-1.2,3.7-3.5,6.4c-2.3,2.8-4.3,4.2-5.9,4.2
	c-1,0-1.8-0.9-2.5-2.6L4.9,9L4.2,6.6C3.7,4.9,3.1,4.1,2.6,4.1C2.4,4.1,2,4.3,1.2,4.8l-0.8-1l1.3-1.1l1.2-1c1.1-0.9,2-1.4,2.5-1.4
	c0.1,0,0.2,0,0.2,0c1.2,0,1.9,0.9,2.2,2.6c0.2,1,0.3,1.8,0.4,2.4c0.1,0.6,0.2,1,0.3,1.3C9,8.2,9.4,9,9.9,9c0.4,0,0.9-0.5,1.6-1.6
	c0.7-1.1,1.1-1.9,1.1-2.4c0-0.1,0-0.2,0-0.3c0-0.7-0.4-1.1-1.2-1.1c-0.4,0-0.8,0.1-1.3,0.2c0.9-2.4,2.5-3.7,4.8-3.7H15.1z"/>
</svg>
