<?xml version="1.0" encoding="utf-8"?>
<!-- Generator: Adobe Illustrator 20.1.0, SVG Export Plug-In . SVG Version: 6.00 Build 0)  -->
<svg version="1.1" id="Слой_1" xmlns="http://www.w3.org/2000/svg" xmlns:xlink="http://www.w3.org/1999/xlink" x="0px" y="0px"
	 viewBox="0 0 20 11" style="enable-background:new 0 0 20 11;" xml:space="preserve">
<path d="M19.4,9.9c0-0.1,0-0.1-0.1-0.1c-0.3-0.6-1-1.3-1.9-2.2l0,0l0,0l0,0l0,0c-0.4-0.4-0.7-0.7-0.8-0.8c-0.2-0.3-0.3-0.5-0.1-0.8
	c0.1-0.2,0.4-0.6,0.9-1.3c0.3-0.4,0.5-0.6,0.7-0.9c1.2-1.5,1.7-2.5,1.5-3l-0.1-0.1c0-0.1-0.1-0.1-0.3-0.2c-0.2-0.1-0.4-0.1-0.6,0
	h-2.9c0,0-0.1,0-0.2,0c-0.1,0-0.1,0-0.1,0h-0.1l0,0l-0.1,0.1c0,0.1-0.1,0.1-0.1,0.2c-0.3,0.8-0.7,1.6-1.1,2.3
	c-0.2,0.4-0.5,0.8-0.7,1.1s-0.4,0.5-0.5,0.7c-0.1,0.1-0.3,0.3-0.4,0.3c-0.1,0.1-0.2,0.1-0.3,0.1s-0.1,0-0.2,0
	c-0.1-0.1-0.2-0.1-0.2-0.2c-0.1-0.1-0.1-0.2-0.1-0.4c0-0.2,0-0.3,0-0.4s0-0.3,0-0.5s0-0.3,0-0.4c0-0.3,0-0.5,0-0.8s0-0.5,0-0.7
	s0-0.4,0-0.6s0-0.3,0-0.5c0-0.1-0.1-0.2-0.1-0.3s-0.1-0.2-0.2-0.2c-0.1-0.1-0.2-0.1-0.3-0.1C10.5,0.1,10.1,0,9.5,0
	c-1.2,0-2,0.1-2.4,0.2C7,0.3,6.9,0.4,6.8,0.5C6.6,0.7,6.6,0.8,6.7,0.8c0.4,0,0.7,0.2,0.9,0.4l0.1,0.1c0,0.1,0.1,0.2,0.1,0.5
	c0,0.2,0.1,0.5,0.1,0.7c0,0.5,0,0.9,0,1.3c0,0.3-0.1,0.6-0.1,0.8S7.7,5,7.7,5.1C7.6,5.2,7.5,5.3,7.5,5.3s0,0-0.1,0.1
	c-0.1,0-0.2,0.1-0.3,0.1c-0.1,0-0.2,0-0.3-0.1C6.7,5.2,6.6,5,6.4,4.9C6.3,4.7,6.1,4.5,5.9,4.2s-0.4-0.6-0.6-1L5.2,2.8
	C5.1,2.7,5,2.4,4.8,2C4.6,1.7,4.5,1.3,4.3,1c0-0.2-0.1-0.3-0.2-0.3H4c0,0-0.1-0.1-0.2-0.1c-0.1,0-0.2-0.1-0.2-0.1l-2.7,0
	c-0.3,0-0.5,0.1-0.6,0.2v0.1c0,0,0,0.1,0,0.2s0,0.2,0.1,0.3C0.7,2.1,1.2,3,1.6,3.9C2.1,4.8,2.5,5.5,2.9,6C3.2,6.5,3.6,7,4,7.5
	c0.3,0.5,0.5,0.8,0.6,1c0.2,0.1,0.3,0.2,0.3,0.3L5.2,9c0.1,0.2,0.4,0.4,0.7,0.6c0.3,0.2,0.7,0.4,1,0.7c0.4,0.2,0.8,0.4,1.3,0.5
	s1,0.2,1.5,0.2h1.2c0.2,0,0.4-0.1,0.5-0.2v-0.1c0,0,0.1-0.1,0.1-0.2c0-0.1,0-0.2,0-0.3c0-0.3,0-0.5,0.1-0.8c0.1-0.2,0.1-0.4,0.2-0.5
	c0.1-0.1,0.1-0.2,0.2-0.3c0.1-0.1,0.1-0.1,0.2-0.1h0.1c0.2-0.1,0.3,0,0.6,0.2c0.2,0.2,0.4,0.4,0.6,0.6c0.2,0.2,0.4,0.5,0.7,0.8
	s0.5,0.5,0.7,0.6l0.2,0.1c0.1,0.1,0.3,0.2,0.5,0.2c0.1,0,0.3,0,0.5,0h2.6c0.3,0,0.5,0,0.6-0.1s0.2-0.2,0.3-0.3c0-0.1,0-0.2,0-0.3
	C19.5,10.1,19.5,10,19.4,9.9L19.4,9.9z"/>
</svg>
