<?xml version="1.0" encoding="utf-8"?>
<!-- Generator: Adobe Illustrator 20.1.0, SVG Export Plug-In . SVG Version: 6.00 Build 0)  -->
<svg version="1.1" id="Слой_1" xmlns="http://www.w3.org/2000/svg" xmlns:xlink="http://www.w3.org/1999/xlink" x="0px" y="0px"
	 viewBox="0 0 19 13" style="enable-background:new 0 0 19 13;" xml:space="preserve">
<path d="M18.8,5c0-0.4,0-0.8-0.1-1.4c-0.1-0.6-0.1-1.1-0.2-1.5c-0.1-0.5-0.3-0.9-0.7-1.2c-0.4-0.3-0.8-0.5-1.3-0.6
	C15,0.1,12.7,0,9.7,0c-3,0-5.3,0.1-6.8,0.3C2.4,0.3,2,0.5,1.6,0.9C1.3,1.2,1,1.6,0.9,2.1C0.8,2.5,0.8,3,0.7,3.6
	C0.7,4.2,0.6,4.6,0.6,5c0,0.4,0,0.9,0,1.5c0,0.6,0,1.2,0,1.5c0,0.4,0,0.8,0.1,1.4c0.1,0.6,0.1,1.1,0.2,1.5c0.1,0.5,0.3,0.9,0.7,1.2
	c0.4,0.3,0.8,0.5,1.3,0.6C4.4,12.9,6.7,13,9.7,13c3,0,5.3-0.1,6.8-0.3c0.5-0.1,0.9-0.3,1.3-0.6c0.4-0.3,0.6-0.8,0.7-1.2
	c0.1-0.4,0.2-0.9,0.2-1.5c0.1-0.6,0.1-1,0.1-1.4c0-0.4,0-0.9,0-1.5C18.8,5.9,18.8,5.3,18.8,5z M13.3,7l-5.2,3.2
	c-0.1,0.1-0.2,0.1-0.3,0.1c-0.1,0-0.2,0-0.3-0.1C7.2,10.2,7.1,10,7.1,9.7V3.3c0-0.3,0.1-0.4,0.3-0.6c0.2-0.1,0.4-0.1,0.7,0L13.3,6
	c0.2,0.1,0.3,0.3,0.3,0.5C13.6,6.8,13.5,6.9,13.3,7z"/>
</svg>
