<?xml version="1.0" standalone="no"?>
<!DOCTYPE svg PUBLIC "-//W3C//DTD SVG 20010904//EN"
 "http://www.w3.org/TR/2001/REC-SVG-20010904/DTD/svg10.dtd">
<svg version="1.0" xmlns="http://www.w3.org/2000/svg"
 width="1024.000000pt" height="1024.000000pt" viewBox="0 0 1024.000000 1024.000000"
 preserveAspectRatio="xMidYMid meet">
<metadata>
Created by potrace 1.11, written by Peter Selinger 2001-2013
</metadata>
<g transform="translate(0.000000,1024.000000) scale(0.100000,-0.100000)"
fill="#000000" stroke="none">
<path d="M640 9526 c0 -388 3 -707 8 -709 4 -2 104 51 222 119 220 127 252
145 330 185 25 13 47 26 50 29 3 3 14 10 25 16 72 39 121 67 130 74 6 4 41 24
79 45 39 21 88 48 110 62 23 13 53 28 69 34 15 6 27 15 27 19 0 5 6 10 13 12
23 6 207 113 207 120 0 5 -3 8 -7 7 -16 -2 -53 14 -53 22 0 5 -4 9 -9 9 -5 0
-41 18 -80 40 -80 46 -113 64 -195 109 -32 18 -79 45 -105 60 -25 15 -53 30
-61 34 -8 4 -28 15 -45 25 -29 18 -53 31 -210 118 -38 21 -71 42 -73 46 -2 4
-8 8 -13 8 -5 0 -46 21 -91 46 -177 99 -224 126 -263 149 -22 13 -46 24 -52
25 -10 0 -13 -147 -13 -704z"/>
<path d="M2405 9113 c0 -76 -3 -144 -8 -150 -5 -7 -6 -13 -1 -13 10 0 11 -386
1 -396 -3 -4 -3 -14 1 -23 10 -21 9 -192 -1 -208 -5 -7 -5 -13 0 -13 7 0 9
-385 3 -400 -1 -3 -1 -9 0 -15 7 -26 4 -325 -3 -325 -5 0 -5 -6 0 -12 4 -7 8
-51 8 -98 1 -69 4 -84 16 -82 7 2 16 8 17 13 2 5 9 9 16 9 6 0 35 16 64 35 29
19 50 29 47 22 -4 -7 0 -4 8 6 8 9 18 17 22 17 4 0 58 29 120 65 61 36 116 65
122 65 6 0 13 4 15 8 3 7 109 68 268 155 30 16 60 33 65 37 6 4 30 19 55 32
25 14 63 35 85 48 22 13 60 33 84 46 24 13 49 28 55 33 6 4 47 28 91 51 44 24
83 48 87 54 4 6 8 7 8 3 0 -5 12 0 28 10 15 10 41 25 57 33 17 8 32 17 35 21
3 3 37 23 75 44 122 67 139 77 183 102 24 14 40 29 35 33 -8 8 -362 208 -453
257 -25 13 -58 32 -75 42 -38 22 -129 73 -175 97 -19 11 -37 21 -40 24 -3 3
-16 11 -30 18 -14 6 -52 27 -85 47 -33 19 -67 38 -75 42 -8 4 -40 21 -70 39
-30 17 -75 43 -100 56 -25 14 -67 38 -95 53 -114 63 -261 146 -275 155 -8 6
-31 18 -50 28 -19 9 -37 20 -40 23 -3 3 -20 12 -37 20 -18 8 -33 17 -33 21 0
5 -6 8 -13 8 -10 0 -13 -31 -12 -137z"/>
<path d="M4659 7986 c-6 -7 -3 -2185 3 -2192 7 -6 119 55 130 70 5 7 8 7 8 1
0 -6 3 -6 8 0 4 6 18 16 32 22 14 7 51 27 82 45 31 18 121 69 199 113 78 44
154 87 168 95 14 8 62 35 106 59 44 25 82 48 83 53 2 4 12 8 23 8 10 0 19 3
19 8 0 4 10 12 23 18 51 24 163 88 180 102 9 8 17 12 17 8 0 -4 12 1 28 12 15
10 52 33 82 49 52 29 154 86 513 289 83 48 173 98 200 113 26 14 47 28 47 31
0 7 -42 32 -190 113 -30 16 -59 33 -65 37 -5 4 -35 21 -65 38 -30 16 -73 40
-95 52 -72 42 -119 68 -180 101 -33 17 -77 43 -97 55 -21 13 -40 24 -42 24 -2
0 -59 32 -126 70 -67 39 -123 70 -125 70 -2 0 -45 24 -97 54 -51 29 -115 66
-143 81 -89 49 -368 206 -428 241 -32 19 -60 34 -63 34 -2 0 -21 11 -42 23
-63 40 -189 107 -193 103z"/>
<path d="M640 6885 l0 -714 86 49 c47 28 89 50 94 50 5 0 15 6 22 13 7 6 27
19 43 27 17 8 32 17 35 20 3 3 26 17 52 30 26 14 112 62 190 106 189 108 213
122 278 157 30 16 60 33 65 37 6 4 31 19 57 33 26 15 84 47 128 72 43 25 82
45 85 45 3 0 11 5 18 11 7 6 37 24 66 41 l55 31 -56 28 c-31 16 -59 33 -63 39
-3 5 -15 10 -26 10 -10 0 -19 3 -19 8 0 4 -21 18 -47 31 -27 14 -56 31 -65 39
-10 9 -18 12 -18 8 0 -4 -12 1 -27 12 -16 10 -80 48 -143 83 -63 35 -122 69
-131 74 -9 6 -39 22 -65 36 -27 14 -86 47 -132 73 -45 25 -104 58 -130 73 -57
32 -99 56 -149 84 -21 12 -63 35 -93 52 -30 17 -64 36 -75 44 -11 7 -23 13
-27 13 -5 0 -8 -322 -8 -715z"/>
<path d="M7216 6552 c-3 -5 -5 -644 -5 -1420 l0 -1412 37 19 c20 10 93 51 161
90 68 39 126 71 128 71 2 0 20 10 41 23 20 13 62 37 92 54 30 16 71 39 90 50
19 11 78 44 130 74 52 30 103 58 112 64 9 5 39 22 65 36 26 15 64 36 83 47 38
23 122 68 157 86 13 6 23 14 23 19 0 4 5 7 11 7 6 0 42 18 80 40 120 71 193
111 212 117 9 3 17 9 17 14 0 5 6 9 13 9 7 0 29 11 48 25 20 13 39 21 43 18 3
-4 6 -2 6 3 0 5 30 25 68 44 37 19 69 38 72 41 3 4 37 23 75 44 39 20 84 45
100 55 17 11 46 27 65 37 19 9 41 23 48 30 7 7 17 13 21 13 9 0 172 90 181
100 3 3 29 17 58 33 28 15 75 39 102 54 l50 28 0 76 c0 57 -4 80 -15 89 -20
16 -114 69 -137 77 -10 3 -18 9 -18 14 0 5 -5 9 -10 9 -6 0 -45 20 -88 44 -42
23 -97 54 -122 68 -25 14 -77 44 -117 67 -40 22 -77 41 -82 41 -5 0 -11 3 -13
8 -1 4 -19 15 -38 26 -19 10 -75 41 -125 69 -49 28 -110 62 -135 75 -25 14
-63 36 -85 48 -22 13 -47 27 -55 31 -8 4 -52 28 -97 55 -45 26 -84 48 -88 48
-3 0 -35 18 -71 40 -36 22 -67 40 -69 40 -2 0 -42 23 -90 50 -48 28 -88 50
-89 50 -2 0 -58 32 -125 70 -68 39 -127 70 -132 70 -5 0 -9 4 -9 9 0 5 -8 11
-17 14 -10 4 -40 19 -68 34 -27 16 -86 48 -130 73 -44 25 -88 49 -97 55 -9 5
-50 27 -90 49 -40 21 -80 44 -88 50 -34 25 -79 46 -84 38z"/>
<path d="M2405 5975 c0 -65 -4 -105 -10 -105 -7 0 -7 -3 0 -8 12 -8 14 -212 2
-212 -5 0 -5 -6 0 -12 12 -20 10 -342 -2 -350 -7 -6 -7 -10 0 -15 14 -11 14
-355 0 -365 -7 -5 -7 -8 0 -8 6 0 10 -41 10 -105 0 -58 -4 -105 -8 -105 -5 0
-5 -6 0 -12 10 -17 10 -348 0 -348 -4 0 -5 -5 -1 -12 4 -7 9 -35 10 -63 2 -61
2 -63 12 -50 4 6 24 19 44 30 20 11 92 52 160 90 68 39 129 71 136 73 6 2 12
8 12 14 0 6 3 8 7 5 3 -4 15 0 25 10 10 9 18 12 18 7 0 -5 4 -4 8 2 4 6 68 44
142 86 74 42 153 86 175 98 22 13 60 34 85 48 25 13 50 28 55 32 9 7 59 34
185 103 30 17 58 35 62 41 4 6 8 7 8 2 0 -5 8 -2 18 6 9 8 24 18 32 21 8 4 38
20 65 37 28 16 57 33 65 37 8 4 40 21 70 39 30 17 78 44 105 59 54 30 129 73
160 92 24 14 27 11 -60 58 -79 42 -188 103 -255 142 -71 41 -121 69 -170 94
-25 12 -47 25 -50 29 -3 3 -16 11 -30 17 -14 7 -50 27 -80 44 -30 18 -80 45
-110 62 -30 17 -93 52 -139 79 -46 26 -85 48 -87 48 -2 0 -25 13 -52 29 -43
25 -121 69 -187 105 -11 6 -22 13 -25 16 -3 3 -21 13 -40 22 -19 10 -62 33
-95 52 -33 20 -66 39 -73 42 -8 4 -53 29 -100 55 -48 27 -89 49 -93 49 -3 0
-5 -47 -4 -105z"/>
<path d="M4659 4463 c0 -5 -1 -500 -2 -1100 -2 -1089 -2 -1093 18 -1087 11 4
22 10 25 13 3 4 21 15 40 24 19 10 51 27 70 39 19 11 55 31 80 45 25 13 68 38
95 54 28 16 57 32 65 36 8 3 23 13 33 21 9 8 17 11 17 6 0 -5 4 -4 8 2 4 6 37
27 74 47 37 20 85 48 107 61 21 14 42 22 45 19 3 -4 6 -1 6 5 0 7 4 12 9 12 5
0 51 25 102 55 52 30 100 55 107 55 6 0 12 4 12 9 0 5 12 14 28 20 15 6 41 19
57 30 33 20 52 31 205 116 58 32 117 66 131 76 14 10 29 16 33 12 3 -3 6 -1 6
5 0 7 4 12 9 12 5 0 43 20 84 44 67 40 136 78 237 132 19 11 37 22 38 27 2 4
8 7 13 7 5 0 55 26 109 58 93 55 99 59 78 70 -22 11 -97 52 -183 102 -22 13
-58 33 -80 45 -22 12 -119 66 -215 120 -96 54 -195 109 -220 123 -25 13 -51
29 -57 35 -7 5 -13 6 -13 1 0 -5 -4 -4 -8 2 -4 7 -32 25 -62 41 -30 17 -73 41
-95 53 -22 13 -65 36 -95 53 -30 17 -67 38 -81 48 -14 10 -28 16 -31 13 -3 -2
-11 2 -18 11 -7 8 -16 15 -20 15 -4 0 -56 28 -116 63 -60 34 -120 68 -134 75
-14 7 -52 28 -85 48 -33 19 -71 40 -85 46 -14 7 -27 15 -30 18 -3 3 -18 12
-35 20 -16 8 -32 17 -35 20 -3 3 -18 12 -35 20 -16 8 -46 24 -65 36 -53 31
-130 74 -135 74 -3 0 -5 -3 -6 -7z"/>
<path d="M640 3374 c0 -393 2 -714 4 -714 5 0 84 44 214 119 68 39 128 71 132
71 5 0 10 3 12 8 2 4 26 18 53 32 28 14 52 28 55 31 3 3 35 21 71 41 92 50
113 62 119 68 3 3 32 19 65 35 33 17 62 33 65 36 3 4 25 17 50 29 25 12 57 31
73 42 15 11 27 16 27 11 0 -4 4 -3 8 3 6 9 93 60 235 138 12 6 37 22 56 33 31
20 33 23 15 30 -10 4 -59 30 -109 59 -107 61 -172 98 -240 135 -133 73 -164
91 -220 124 -33 19 -77 43 -97 52 -21 10 -38 21 -38 25 0 5 -4 8 -10 8 -5 0
-31 13 -57 28 -26 16 -79 46 -118 67 -38 21 -136 75 -217 121 l-148 83 0 -715z"/>
<path d="M2406 2882 c-2 -4 -3 -31 -2 -59 1 -29 -2 -53 -7 -53 -4 0 -5 -6 0
-12 10 -17 11 -169 1 -190 -5 -10 -5 -18 -1 -18 10 0 10 -386 0 -396 -3 -4 -3
-14 1 -23 10 -21 9 -192 -1 -208 -5 -7 -5 -13 0 -13 10 0 10 -386 0 -396 -3
-4 -3 -14 1 -23 10 -21 9 -192 -1 -208 -5 -7 -5 -13 0 -13 4 0 8 -57 7 -126 0
-69 3 -127 7 -129 4 -3 23 6 43 20 20 14 39 25 41 25 3 0 38 20 79 44 41 24
84 47 95 51 12 3 21 11 21 16 0 6 4 8 9 4 5 -3 12 -1 15 4 3 5 29 21 58 36 29
15 61 34 71 43 9 8 17 12 17 8 0 -4 12 1 28 12 15 10 50 32 77 47 153 84 180
100 183 107 2 4 12 8 23 8 10 0 19 4 19 9 0 5 16 15 35 22 19 7 35 17 35 22 0
4 5 5 10 2 6 -3 10 -2 10 2 0 5 17 17 38 28 20 11 127 71 236 132 109 62 201
113 203 113 3 0 17 8 31 19 15 10 56 34 92 53 199 106 203 110 163 130 -15 8
-80 44 -143 80 -63 35 -136 77 -162 91 -26 15 -83 46 -125 70 -79 45 -134 75
-220 123 -27 15 -52 30 -58 34 -5 4 -39 23 -75 42 -78 42 -128 70 -280 156
-63 36 -140 79 -170 95 -30 17 -72 41 -92 54 -21 13 -39 23 -42 23 -2 0 -62
33 -135 74 -72 41 -133 71 -135 68z"/>
<path d="M640 713 c0 -681 1 -715 18 -702 9 8 36 25 58 37 23 12 52 28 65 35
13 7 35 20 49 28 14 9 50 30 80 47 30 16 87 47 125 69 39 22 93 52 120 68 28
15 55 31 60 35 6 5 39 23 73 41 35 19 71 39 81 44 9 6 84 48 166 95 83 46 153
88 156 93 3 5 9 8 13 7 4 0 52 25 107 55 91 52 99 58 82 71 -10 7 -23 14 -29
14 -6 0 -17 7 -24 15 -7 9 -15 13 -18 11 -3 -3 -17 3 -31 13 -23 16 -148 87
-256 146 -119 65 -181 99 -185 104 -3 3 -27 17 -55 31 -27 14 -51 28 -53 33
-2 4 -8 7 -12 7 -5 0 -35 15 -67 34 -32 18 -78 45 -103 58 -25 14 -63 35 -85
48 -22 13 -58 33 -80 45 -22 12 -86 47 -142 78 -56 31 -104 57 -107 57 -3 0
-6 -322 -6 -717z"/>
</g>
</svg>
